<?xml version="1.0" encoding="UTF-8"?>
<svg id="Vrstva_2" data-name="Vrstva 2" xmlns="http://www.w3.org/2000/svg" viewBox="0 0 494.95 171.05">
  <defs>
    <style>
      .cls-1 {
        fill: #d12c2f;
      }

      .cls-2 {
        fill: #171818;
      }

      .cls-3 {
        fill: #992323;
      }

      .cls-4 {
        fill: #2a2b2c;
      }

      .cls-5 {
        fill: #2c302f;
      }

      .cls-6 {
        fill: #333534;
      }

      .cls-7 {
        fill: #e73037;
      }

      .cls-8 {
        fill: #2f2f31;
      }

      .cls-9 {
        fill: #22302e;
      }

      .cls-10 {
        fill: #959595;
      }

      .cls-11 {
        fill: #202121;
      }

      .cls-12 {
        fill: #2d2f30;
      }

      .cls-13 {
        fill: #481412;
      }

      .cls-14 {
        fill: #2d2e2f;
      }

      .cls-15 {
        fill: #0b0c0d;
      }

      .cls-16 {
        fill: #e73139;
      }

      .cls-17 {
        fill: #4e2221;
      }

      .cls-18 {
        fill: #ce2b2f;
      }

      .cls-19 {
        fill: #454546;
      }

      .cls-20 {
        fill: #902122;
      }

      .cls-21 {
        fill: #404141;
      }

      .cls-22 {
        fill: #242626;
      }

      .cls-23 {
        fill: #441616;
      }

      .cls-24 {
        fill: #2e2e2f;
      }

      .cls-25 {
        fill: #e62c33;
      }

      .cls-26 {
        fill: #e62e34;
      }

      .cls-27 {
        fill: #141415;
      }

      .cls-28 {
        fill: #6e6f6e;
      }

      .cls-29 {
        fill: #2b2c2c;
      }

      .cls-30 {
        fill: #371918;
      }

      .cls-31 {
        fill: #313133;
      }

      .cls-32 {
        fill: #474747;
      }

      .cls-33 {
        fill: #757578;
      }

      .cls-34 {
        fill: #2b2b2c;
      }

      .cls-35 {
        fill: #1a1b1c;
      }

      .cls-36 {
        fill: #525252;
      }

      .cls-37 {
        fill: #d12d30;
      }

      .cls-38 {
        fill: #0c0d0e;
      }

      .cls-39 {
        fill: #6d6d6d;
      }

      .cls-40 {
        fill: #262728;
      }

      .cls-41 {
        fill: #363639;
      }

      .cls-42 {
        fill: #292b2a;
      }

      .cls-43 {
        fill: #2d2e2d;
      }

      .cls-44 {
        fill: #6b6c6b;
      }

      .cls-45 {
        fill: #252627;
      }

      .cls-46 {
        fill: #26302f;
      }
    </style>
  </defs>
  <g id="Vrstva_1-2" data-name="Vrstva 1">
    <g>
      <rect class="cls-35" x="475.41" y="164.47" width="6.51" height="6.58"/>
      <rect class="cls-24" x="468.9" y="164.47" width="6.51" height="6.58"/>
      <rect class="cls-24" x="462.39" y="164.47" width="6.51" height="6.58"/>
      <rect class="cls-24" x="455.88" y="164.47" width="6.51" height="6.58"/>
      <rect class="cls-24" x="449.36" y="164.47" width="6.51" height="6.58"/>
      <rect class="cls-24" x="442.85" y="164.47" width="6.51" height="6.58"/>
      <rect class="cls-24" x="436.34" y="164.47" width="6.51" height="6.58"/>
      <rect class="cls-24" x="429.82" y="164.47" width="6.51" height="6.58"/>
      <rect class="cls-24" x="423.31" y="164.47" width="6.51" height="6.58"/>
      <rect class="cls-24" x="416.8" y="164.47" width="6.51" height="6.58"/>
      <rect class="cls-24" x="410.29" y="164.47" width="6.51" height="6.58"/>
      <rect class="cls-24" x="403.77" y="164.47" width="6.51" height="6.58"/>
      <rect class="cls-24" x="397.26" y="164.47" width="6.51" height="6.58"/>
      <rect class="cls-24" x="390.75" y="164.47" width="6.51" height="6.58"/>
      <rect class="cls-24" x="384.24" y="164.47" width="6.51" height="6.58"/>
      <rect class="cls-24" x="377.72" y="164.47" width="6.51" height="6.58"/>
      <rect class="cls-24" x="371.21" y="164.47" width="6.51" height="6.58"/>
      <rect class="cls-24" x="364.7" y="164.47" width="6.51" height="6.58"/>
      <rect class="cls-24" x="358.19" y="164.47" width="6.51" height="6.58"/>
      <rect class="cls-24" x="351.68" y="164.47" width="6.51" height="6.58"/>
      <rect class="cls-24" x="345.16" y="164.47" width="6.51" height="6.58"/>
      <rect class="cls-24" x="338.65" y="164.47" width="6.51" height="6.58"/>
      <rect class="cls-24" x="332.14" y="164.47" width="6.51" height="6.58"/>
      <rect class="cls-24" x="325.62" y="164.47" width="6.51" height="6.58"/>
      <rect class="cls-24" x="319.11" y="164.47" width="6.51" height="6.58"/>
      <rect class="cls-24" x="312.6" y="164.47" width="6.51" height="6.58"/>
      <rect class="cls-24" x="306.09" y="164.47" width="6.51" height="6.58"/>
      <rect class="cls-24" x="299.57" y="164.47" width="6.51" height="6.58"/>
      <rect class="cls-24" x="293.06" y="164.47" width="6.51" height="6.58"/>
      <rect class="cls-24" x="286.55" y="164.47" width="6.51" height="6.58"/>
      <rect class="cls-24" x="280.04" y="164.47" width="6.51" height="6.58"/>
      <rect class="cls-24" x="273.52" y="164.47" width="6.51" height="6.58"/>
      <rect class="cls-24" x="267.01" y="164.47" width="6.51" height="6.58"/>
      <rect class="cls-5" x="260.5" y="164.47" width="6.51" height="6.58"/>
      <rect class="cls-9" x="253.99" y="164.47" width="6.51" height="6.58"/>
      <rect class="cls-9" x="247.48" y="164.47" width="6.51" height="6.58"/>
      <rect class="cls-9" x="240.96" y="164.47" width="6.51" height="6.58"/>
      <rect class="cls-9" x="234.45" y="164.47" width="6.51" height="6.58"/>
      <rect class="cls-46" x="227.94" y="164.47" width="6.51" height="6.58"/>
      <rect class="cls-12" x="221.43" y="164.47" width="6.51" height="6.58"/>
      <rect class="cls-24" x="214.91" y="164.47" width="6.51" height="6.58"/>
      <rect class="cls-24" x="208.4" y="164.47" width="6.51" height="6.58"/>
      <rect class="cls-24" x="201.89" y="164.47" width="6.51" height="6.58"/>
      <rect class="cls-24" x="195.38" y="164.47" width="6.51" height="6.58"/>
      <rect class="cls-24" x="188.86" y="164.47" width="6.51" height="6.58"/>
      <rect class="cls-24" x="182.35" y="164.47" width="6.51" height="6.58"/>
      <rect class="cls-24" x="175.84" y="164.47" width="6.51" height="6.58"/>
      <rect class="cls-24" x="169.32" y="164.47" width="6.51" height="6.58"/>
      <rect class="cls-24" x="162.81" y="164.47" width="6.51" height="6.58"/>
      <rect class="cls-24" x="156.3" y="164.47" width="6.51" height="6.58"/>
      <rect class="cls-24" x="149.79" y="164.47" width="6.51" height="6.58"/>
      <rect class="cls-24" x="143.28" y="164.47" width="6.51" height="6.58"/>
      <rect class="cls-24" x="136.76" y="164.47" width="6.51" height="6.58"/>
      <rect class="cls-24" x="130.25" y="164.47" width="6.51" height="6.58"/>
      <rect class="cls-24" x="123.74" y="164.47" width="6.51" height="6.58"/>
      <rect class="cls-24" x="117.23" y="164.47" width="6.51" height="6.58"/>
      <rect class="cls-24" x="110.71" y="164.47" width="6.51" height="6.58"/>
      <rect class="cls-24" x="104.2" y="164.47" width="6.51" height="6.58"/>
      <rect class="cls-24" x="97.69" y="164.47" width="6.51" height="6.58"/>
      <rect class="cls-24" x="91.18" y="164.47" width="6.51" height="6.58"/>
      <rect class="cls-24" x="84.66" y="164.47" width="6.51" height="6.58"/>
      <rect class="cls-24" x="78.15" y="164.47" width="6.51" height="6.58"/>
      <rect class="cls-24" x="71.64" y="164.47" width="6.51" height="6.58"/>
      <rect class="cls-24" x="65.12" y="164.47" width="6.51" height="6.58"/>
      <rect class="cls-24" x="58.61" y="164.47" width="6.51" height="6.58"/>
      <rect class="cls-24" x="52.1" y="164.47" width="6.51" height="6.58"/>
      <rect class="cls-24" x="45.59" y="164.47" width="6.51" height="6.58"/>
      <rect class="cls-24" x="39.08" y="164.47" width="6.51" height="6.58"/>
      <rect class="cls-24" x="32.56" y="164.47" width="6.51" height="6.58"/>
      <rect class="cls-24" x="26.05" y="164.47" width="6.51" height="6.58"/>
      <rect class="cls-4" x="19.54" y="164.47" width="6.51" height="6.58"/>
      <rect class="cls-27" x="13.03" y="164.47" width="6.51" height="6.58"/>
      <rect class="cls-4" x="481.93" y="157.89" width="6.51" height="6.58"/>
      <rect class="cls-29" x="475.41" y="157.89" width="6.51" height="6.58"/>
      <rect class="cls-39" x="468.9" y="157.89" width="6.51" height="6.58"/>
      <rect class="cls-23" x="260.5" y="157.89" width="6.51" height="6.58"/>
      <rect class="cls-18" x="253.99" y="157.89" width="6.51" height="6.58"/>
      <rect class="cls-1" x="247.48" y="157.89" width="6.51" height="6.58"/>
      <rect class="cls-1" x="240.96" y="157.89" width="6.51" height="6.58"/>
      <rect class="cls-37" x="234.45" y="157.89" width="6.51" height="6.58"/>
      <rect class="cls-20" x="227.94" y="157.89" width="6.51" height="6.58"/>
      <rect class="cls-43" x="19.54" y="157.89" width="6.51" height="6.58"/>
      <rect class="cls-42" x="13.03" y="157.89" width="6.51" height="6.58"/>
      <rect class="cls-33" x="6.51" y="157.89" width="6.51" height="6.58"/>
      <rect class="cls-38" x="488.44" y="151.32" width="6.51" height="6.58"/>
      <rect class="cls-6" x="481.93" y="151.32" width="6.51" height="6.58"/>
      <rect class="cls-10" x="475.41" y="151.32" width="6.51" height="6.58"/>
      <rect class="cls-30" x="253.99" y="151.32" width="6.51" height="6.58"/>
      <rect class="cls-26" x="247.48" y="151.32" width="6.51" height="6.58"/>
      <rect class="cls-25" x="240.96" y="151.32" width="6.51" height="6.58"/>
      <rect class="cls-17" x="234.45" y="151.32" width="6.51" height="6.58"/>
      <rect class="cls-21" x="13.03" y="151.32" width="6.51" height="6.58"/>
      <rect class="cls-45" x="6.51" y="151.32" width="6.51" height="6.58"/>
      <rect class="cls-41" y="151.32" width="6.51" height="6.58"/>
      <rect class="cls-15" x="488.44" y="144.74" width="6.51" height="6.58"/>
      <rect class="cls-32" x="481.93" y="144.74" width="6.51" height="6.58"/>
      <rect class="cls-3" x="247.48" y="144.74" width="6.51" height="6.58"/>
      <rect class="cls-7" x="240.96" y="144.74" width="6.51" height="6.58"/>
      <rect class="cls-11" x="6.51" y="144.74" width="6.51" height="6.58"/>
      <rect class="cls-41" y="144.74" width="6.51" height="6.58"/>
      <rect class="cls-15" x="488.44" y="138.16" width="6.51" height="6.58"/>
      <rect class="cls-32" x="481.93" y="138.16" width="6.51" height="6.58"/>
      <rect class="cls-13" x="247.48" y="138.16" width="6.51" height="6.58"/>
      <rect class="cls-16" x="240.96" y="138.16" width="6.51" height="6.58"/>
      <rect class="cls-11" x="6.51" y="138.16" width="6.51" height="6.58"/>
      <rect class="cls-41" y="138.16" width="6.51" height="6.58"/>
      <rect class="cls-15" x="488.44" y="131.58" width="6.51" height="6.58"/>
      <rect class="cls-32" x="481.93" y="131.58" width="6.51" height="6.58"/>
      <rect class="cls-11" x="6.51" y="131.58" width="6.51" height="6.58"/>
      <rect class="cls-41" y="131.58" width="6.51" height="6.58"/>
      <rect class="cls-15" x="488.44" y="125" width="6.51" height="6.58"/>
      <rect class="cls-32" x="481.93" y="125" width="6.51" height="6.58"/>
      <rect class="cls-11" x="6.51" y="125" width="6.51" height="6.58"/>
      <rect class="cls-41" y="125" width="6.51" height="6.58"/>
      <rect class="cls-15" x="488.44" y="118.42" width="6.51" height="6.58"/>
      <rect class="cls-32" x="481.93" y="118.42" width="6.51" height="6.58"/>
      <rect class="cls-11" x="6.51" y="118.42" width="6.51" height="6.58"/>
      <rect class="cls-41" y="118.42" width="6.51" height="6.58"/>
      <rect class="cls-15" x="488.44" y="111.84" width="6.51" height="6.58"/>
      <rect class="cls-32" x="481.93" y="111.84" width="6.51" height="6.58"/>
      <rect class="cls-11" x="6.51" y="111.84" width="6.51" height="6.58"/>
      <rect class="cls-41" y="111.84" width="6.51" height="6.58"/>
      <rect class="cls-15" x="488.44" y="105.26" width="6.51" height="6.58"/>
      <rect class="cls-32" x="481.93" y="105.26" width="6.51" height="6.58"/>
      <rect class="cls-11" x="6.51" y="105.26" width="6.51" height="6.58"/>
      <rect class="cls-41" y="105.26" width="6.51" height="6.58"/>
      <rect class="cls-15" x="488.44" y="98.68" width="6.51" height="6.58"/>
      <rect class="cls-32" x="481.93" y="98.68" width="6.51" height="6.58"/>
      <rect class="cls-11" x="6.51" y="98.68" width="6.51" height="6.58"/>
      <rect class="cls-41" y="98.68" width="6.51" height="6.58"/>
      <rect class="cls-15" x="488.44" y="92.11" width="6.51" height="6.58"/>
      <rect class="cls-32" x="481.93" y="92.11" width="6.51" height="6.58"/>
      <rect class="cls-11" x="6.51" y="92.11" width="6.51" height="6.58"/>
      <rect class="cls-41" y="92.11" width="6.51" height="6.58"/>
      <rect class="cls-15" x="488.44" y="85.53" width="6.51" height="6.58"/>
      <rect class="cls-32" x="481.93" y="85.53" width="6.51" height="6.58"/>
      <rect class="cls-11" x="6.51" y="85.53" width="6.51" height="6.58"/>
      <rect class="cls-41" y="85.53" width="6.51" height="6.58"/>
      <rect class="cls-15" x="488.44" y="78.95" width="6.51" height="6.58"/>
      <rect class="cls-32" x="481.93" y="78.95" width="6.51" height="6.58"/>
      <rect class="cls-11" x="6.51" y="78.95" width="6.51" height="6.58"/>
      <rect class="cls-41" y="78.95" width="6.51" height="6.58"/>
      <rect class="cls-15" x="488.44" y="72.37" width="6.51" height="6.58"/>
      <rect class="cls-32" x="481.93" y="72.37" width="6.51" height="6.58"/>
      <rect class="cls-11" x="6.51" y="72.37" width="6.51" height="6.58"/>
      <rect class="cls-41" y="72.37" width="6.51" height="6.58"/>
      <rect class="cls-15" x="488.44" y="65.79" width="6.51" height="6.58"/>
      <rect class="cls-32" x="481.93" y="65.79" width="6.51" height="6.58"/>
      <rect class="cls-11" x="6.51" y="65.79" width="6.51" height="6.58"/>
      <rect class="cls-41" y="65.79" width="6.51" height="6.58"/>
      <rect class="cls-15" x="488.44" y="59.21" width="6.51" height="6.58"/>
      <rect class="cls-32" x="481.93" y="59.21" width="6.51" height="6.58"/>
      <rect class="cls-11" x="6.51" y="59.21" width="6.51" height="6.58"/>
      <rect class="cls-41" y="59.21" width="6.51" height="6.58"/>
      <rect class="cls-15" x="488.44" y="52.63" width="6.51" height="6.58"/>
      <rect class="cls-32" x="481.93" y="52.63" width="6.51" height="6.58"/>
      <rect class="cls-11" x="6.51" y="52.63" width="6.51" height="6.58"/>
      <rect class="cls-41" y="52.63" width="6.51" height="6.58"/>
      <rect class="cls-15" x="488.44" y="46.05" width="6.51" height="6.58"/>
      <rect class="cls-32" x="481.93" y="46.05" width="6.51" height="6.58"/>
      <rect class="cls-11" x="6.51" y="46.05" width="6.51" height="6.58"/>
      <rect class="cls-41" y="46.05" width="6.51" height="6.58"/>
      <rect class="cls-15" x="488.44" y="39.47" width="6.51" height="6.58"/>
      <rect class="cls-32" x="481.93" y="39.47" width="6.51" height="6.58"/>
      <rect class="cls-11" x="6.51" y="39.47" width="6.51" height="6.58"/>
      <rect class="cls-41" y="39.47" width="6.51" height="6.58"/>
      <rect class="cls-15" x="488.44" y="32.89" width="6.51" height="6.58"/>
      <rect class="cls-32" x="481.93" y="32.89" width="6.51" height="6.58"/>
      <rect class="cls-11" x="6.51" y="32.89" width="6.51" height="6.58"/>
      <rect class="cls-41" y="32.89" width="6.51" height="6.58"/>
      <rect class="cls-15" x="488.44" y="26.32" width="6.51" height="6.58"/>
      <rect class="cls-32" x="481.93" y="26.32" width="6.51" height="6.58"/>
      <rect class="cls-11" x="6.51" y="26.32" width="6.51" height="6.58"/>
      <rect class="cls-41" y="26.32" width="6.51" height="6.58"/>
      <rect class="cls-15" x="488.44" y="19.74" width="6.51" height="6.58"/>
      <rect class="cls-32" x="481.93" y="19.74" width="6.51" height="6.58"/>
      <rect class="cls-11" x="6.51" y="19.74" width="6.51" height="6.58"/>
      <rect class="cls-41" y="19.74" width="6.51" height="6.58"/>
      <rect class="cls-19" x="488.44" y="13.16" width="6.51" height="6.58"/>
      <rect class="cls-22" x="481.93" y="13.16" width="6.51" height="6.58"/>
      <rect class="cls-28" x="475.41" y="13.16" width="6.51" height="6.58"/>
      <rect class="cls-14" x="13.03" y="13.16" width="6.51" height="6.58"/>
      <rect class="cls-8" x="6.51" y="13.16" width="6.51" height="6.58"/>
      <rect class="cls-31" x="481.93" y="6.58" width="6.51" height="6.58"/>
      <rect class="cls-29" x="475.41" y="6.58" width="6.51" height="6.58"/>
      <rect class="cls-44" x="468.9" y="6.58" width="6.51" height="6.58"/>
      <rect class="cls-43" x="19.54" y="6.58" width="6.51" height="6.58"/>
      <rect class="cls-34" x="13.03" y="6.58" width="6.51" height="6.58"/>
      <rect class="cls-36" x="475.41" width="6.51" height="6.58"/>
      <rect class="cls-2" x="468.9" width="6.51" height="6.58"/>
      <rect class="cls-2" x="462.39" width="6.51" height="6.58"/>
      <rect class="cls-2" x="455.88" width="6.51" height="6.58"/>
      <rect class="cls-2" x="449.36" width="6.51" height="6.58"/>
      <rect class="cls-2" x="442.85" width="6.51" height="6.58"/>
      <rect class="cls-2" x="436.34" width="6.51" height="6.58"/>
      <rect class="cls-2" x="429.82" width="6.51" height="6.58"/>
      <rect class="cls-2" x="423.31" width="6.51" height="6.58"/>
      <rect class="cls-2" x="416.8" width="6.51" height="6.58"/>
      <rect class="cls-2" x="410.29" width="6.51" height="6.58"/>
      <rect class="cls-2" x="403.77" width="6.51" height="6.58"/>
      <rect class="cls-2" x="397.26" width="6.51" height="6.58"/>
      <rect class="cls-2" x="390.75" width="6.51" height="6.58"/>
      <rect class="cls-2" x="384.24" width="6.51" height="6.58"/>
      <rect class="cls-2" x="377.72" width="6.51" height="6.58"/>
      <rect class="cls-2" x="371.21" width="6.51" height="6.58"/>
      <rect class="cls-2" x="364.7" width="6.51" height="6.58"/>
      <rect class="cls-2" x="358.19" width="6.51" height="6.58"/>
      <rect class="cls-2" x="351.68" width="6.51" height="6.58"/>
      <rect class="cls-2" x="345.16" width="6.51" height="6.58"/>
      <rect class="cls-2" x="338.65" width="6.51" height="6.58"/>
      <rect class="cls-2" x="332.14" width="6.51" height="6.58"/>
      <rect class="cls-2" x="325.62" width="6.51" height="6.58"/>
      <rect class="cls-2" x="319.11" width="6.51" height="6.58"/>
      <rect class="cls-2" x="312.6" width="6.51" height="6.58"/>
      <rect class="cls-2" x="306.09" width="6.51" height="6.58"/>
      <rect class="cls-2" x="299.57" width="6.51" height="6.58"/>
      <rect class="cls-2" x="293.06" width="6.51" height="6.58"/>
      <rect class="cls-2" x="286.55" width="6.51" height="6.58"/>
      <rect class="cls-2" x="280.04" width="6.51" height="6.58"/>
      <rect class="cls-2" x="273.52" width="6.51" height="6.58"/>
      <rect class="cls-2" x="267.01" width="6.51" height="6.58"/>
      <rect class="cls-2" x="260.5" width="6.51" height="6.58"/>
      <rect class="cls-2" x="253.99" width="6.51" height="6.58"/>
      <rect class="cls-2" x="247.48" width="6.51" height="6.58"/>
      <rect class="cls-2" x="240.96" width="6.51" height="6.58"/>
      <rect class="cls-2" x="234.45" width="6.51" height="6.58"/>
      <rect class="cls-2" x="227.94" width="6.51" height="6.58"/>
      <rect class="cls-2" x="221.43" width="6.51" height="6.58"/>
      <rect class="cls-2" x="214.91" width="6.51" height="6.58"/>
      <rect class="cls-2" x="208.4" width="6.51" height="6.58"/>
      <rect class="cls-2" x="201.89" width="6.51" height="6.58"/>
      <rect class="cls-2" x="195.38" width="6.51" height="6.58"/>
      <rect class="cls-2" x="188.86" width="6.51" height="6.58"/>
      <rect class="cls-2" x="182.35" width="6.51" height="6.58"/>
      <rect class="cls-2" x="175.84" width="6.51" height="6.58"/>
      <rect class="cls-2" x="169.32" width="6.51" height="6.58"/>
      <rect class="cls-2" x="162.81" width="6.51" height="6.58"/>
      <rect class="cls-2" x="156.3" width="6.51" height="6.58"/>
      <rect class="cls-2" x="149.79" width="6.51" height="6.58"/>
      <rect class="cls-2" x="143.28" width="6.51" height="6.58"/>
      <rect class="cls-2" x="136.76" width="6.51" height="6.58"/>
      <rect class="cls-2" x="130.25" width="6.51" height="6.58"/>
      <rect class="cls-2" x="123.74" width="6.51" height="6.58"/>
      <rect class="cls-2" x="117.23" width="6.51" height="6.58"/>
      <rect class="cls-2" x="110.71" width="6.51" height="6.58"/>
      <rect class="cls-2" x="104.2" width="6.51" height="6.58"/>
      <rect class="cls-2" x="97.69" width="6.51" height="6.58"/>
      <rect class="cls-2" x="91.18" width="6.51" height="6.58"/>
      <rect class="cls-2" x="84.66" width="6.51" height="6.58"/>
      <rect class="cls-2" x="78.15" width="6.51" height="6.58"/>
      <rect class="cls-2" x="71.64" width="6.51" height="6.58"/>
      <rect class="cls-2" x="65.12" width="6.51" height="6.58"/>
      <rect class="cls-2" x="58.61" width="6.51" height="6.58"/>
      <rect class="cls-2" x="52.1" width="6.51" height="6.58"/>
      <rect class="cls-2" x="45.59" width="6.51" height="6.58"/>
      <rect class="cls-2" x="39.08" width="6.51" height="6.58"/>
      <rect class="cls-2" x="32.56" width="6.51" height="6.58"/>
      <rect class="cls-2" x="26.05" width="6.51" height="6.58"/>
      <rect class="cls-40" x="19.54" width="6.51" height="6.58"/>
    </g>
  </g>
</svg>