<?xml version="1.0" encoding="UTF-8"?>
<svg id="Vrstva_2" data-name="Vrstva 2" xmlns="http://www.w3.org/2000/svg" viewBox="0 0 82.14 164.55">
  <defs>
    <style>
      .cls-1 {
        fill: #4c1617;
      }

      .cls-2 {
        fill: #030405;
      }

      .cls-3 {
        fill: #e41d21;
      }

      .cls-4 {
        fill: #bc1a1c;
      }

      .cls-5 {
        fill: #030304;
      }

      .cls-6 {
        fill: #1f1414;
      }

      .cls-7 {
        fill: #5d1d15;
      }

      .cls-8 {
        fill: #0f090b;
      }

      .cls-9 {
        fill: #a4211e;
      }
    </style>
  </defs>
  <g id="Vrstva_1-2" data-name="Vrstva 1">
    <g>
      <rect class="cls-5" x="41.07" y="156.32" width="8.21" height="8.23"/>
      <rect class="cls-5" x="32.86" y="156.32" width="8.21" height="8.23"/>
      <rect class="cls-5" x="49.29" y="148.09" width="8.21" height="8.23"/>
      <rect class="cls-3" x="41.07" y="148.09" width="8.21" height="8.23"/>
      <rect class="cls-3" x="32.86" y="148.09" width="8.21" height="8.23"/>
      <rect class="cls-5" x="24.64" y="148.09" width="8.21" height="8.23"/>
      <rect class="cls-5" x="49.29" y="139.86" width="8.21" height="8.23"/>
      <rect class="cls-3" x="41.07" y="139.86" width="8.21" height="8.23"/>
      <rect class="cls-3" x="32.86" y="139.86" width="8.21" height="8.23"/>
      <rect class="cls-5" x="24.64" y="139.86" width="8.21" height="8.23"/>
      <rect class="cls-8" x="41.07" y="131.64" width="8.21" height="8.23"/>
      <rect class="cls-8" x="32.86" y="131.64" width="8.21" height="8.23"/>
      <rect class="cls-6" x="41.07" y="106.95" width="8.21" height="8.23"/>
      <rect class="cls-6" x="32.86" y="106.95" width="8.21" height="8.23"/>
      <rect class="cls-5" x="49.29" y="98.73" width="8.21" height="8.23"/>
      <rect class="cls-3" x="41.07" y="98.73" width="8.21" height="8.23"/>
      <rect class="cls-3" x="32.86" y="98.73" width="8.21" height="8.23"/>
      <rect class="cls-5" x="24.64" y="98.73" width="8.21" height="8.23"/>
      <rect class="cls-5" x="49.29" y="90.5" width="8.21" height="8.23"/>
      <rect class="cls-3" x="41.07" y="90.5" width="8.21" height="8.23"/>
      <rect class="cls-3" x="32.86" y="90.5" width="8.21" height="8.23"/>
      <rect class="cls-5" x="24.64" y="90.5" width="8.21" height="8.23"/>
      <rect class="cls-5" x="57.5" y="82.27" width="8.21" height="8.23"/>
      <rect class="cls-5" x="65.72" y="74.06" width="8.21" height="8.23"/>
      <rect class="cls-3" x="49.29" y="82.27" width="8.21" height="8.23"/>
      <rect class="cls-3" x="41.07" y="82.27" width="8.21" height="8.23"/>
      <rect class="cls-3" x="32.86" y="82.27" width="8.21" height="8.23"/>
      <rect class="cls-5" x="24.64" y="82.27" width="8.21" height="8.23"/>
      <rect class="cls-3" x="57.5" y="74.05" width="8.21" height="8.23"/>
      <rect class="cls-3" x="49.29" y="74.05" width="8.21" height="8.23"/>
      <rect class="cls-3" x="41.07" y="74.05" width="8.21" height="8.23"/>
      <rect class="cls-5" x="32.86" y="74.05" width="8.21" height="8.23"/>
      <rect class="cls-7" x="73.93" y="65.82" width="8.21" height="8.23"/>
      <rect class="cls-3" x="65.71" y="65.82" width="8.21" height="8.23"/>
      <rect class="cls-3" x="57.5" y="65.82" width="8.21" height="8.23"/>
      <rect class="cls-3" x="49.29" y="65.82" width="8.21" height="8.23"/>
      <rect class="cls-5" x="41.07" y="65.82" width="8.21" height="8.23"/>
      <rect class="cls-5" x="16.43" y="65.82" width="8.21" height="8.23"/>
      <rect class="cls-5" x="8.21" y="65.82" width="8.21" height="8.23"/>
      <rect class="cls-7" x="73.93" y="57.59" width="8.21" height="8.23"/>
      <rect class="cls-3" x="65.71" y="57.59" width="8.21" height="8.23"/>
      <rect class="cls-3" x="57.5" y="57.59" width="8.21" height="8.23"/>
      <rect class="cls-5" x="49.29" y="57.59" width="8.21" height="8.23"/>
      <rect class="cls-5" x="73.93" y="65.82" width="8.21" height="8.23"/>
      <rect class="cls-5" x="73.93" y="57.59" width="8.21" height="8.23"/>
      <rect class="cls-5" x="73.93" y="47.22" width="8.21" height="8.23"/>
      <rect class="cls-5" x="73.93" y="49.36" width="8.21" height="8.23"/>
      <rect class="cls-5" x="73.93" y="38.99" width="8.21" height="8.23"/>
      <rect class="cls-5" x="73.93" y="32.91" width="8.21" height="8.23"/>
      <rect class="cls-5" x="73.93" y="24.68" width="8.21" height="8.23"/>
      <rect class="cls-5" x="65.71" y="16.46" width="8.21" height="8.23"/>
      <rect class="cls-5" x="24.64" y="57.59" width="8.21" height="8.23"/>
      <rect class="cls-3" x="16.43" y="57.59" width="8.21" height="8.23"/>
      <rect class="cls-3" x="8.21" y="57.59" width="8.21" height="8.23"/>
      <rect class="cls-2" y="57.59" width="8.21" height="8.23"/>
      <rect class="cls-3" x="65.71" y="49.36" width="8.21" height="8.23"/>
      <rect class="cls-3" x="57.5" y="49.36" width="8.21" height="8.23"/>
      <rect class="cls-5" x="49.29" y="49.36" width="8.21" height="8.23"/>
      <rect class="cls-5" x="24.64" y="49.36" width="8.21" height="8.23"/>
      <rect class="cls-3" x="16.43" y="49.36" width="8.21" height="8.23"/>
      <rect class="cls-3" x="8.21" y="49.36" width="8.21" height="8.23"/>
      <rect class="cls-2" y="49.36" width="8.21" height="8.23"/>
      <rect class="cls-3" x="65.71" y="41.14" width="8.21" height="8.23"/>
      <rect class="cls-3" x="57.5" y="41.14" width="8.21" height="8.23"/>
      <rect class="cls-5" x="49.29" y="41.14" width="8.21" height="8.23"/>
      <rect class="cls-5" x="24.64" y="41.14" width="8.21" height="8.23"/>
      <rect class="cls-3" x="16.43" y="41.14" width="8.21" height="8.23"/>
      <rect class="cls-3" x="8.21" y="41.14" width="8.21" height="8.23"/>
      <rect class="cls-2" y="41.14" width="8.21" height="8.23"/>
      <rect class="cls-3" x="65.71" y="32.91" width="8.21" height="8.23"/>
      <rect class="cls-3" x="57.5" y="32.91" width="8.21" height="8.23"/>
      <rect class="cls-5" x="49.29" y="32.91" width="8.21" height="8.23"/>
      <rect class="cls-5" x="24.64" y="32.91" width="8.21" height="8.23"/>
      <rect class="cls-3" x="16.43" y="32.91" width="8.21" height="8.23"/>
      <rect class="cls-3" x="8.21" y="32.91" width="8.21" height="8.23"/>
      <rect class="cls-2" y="32.91" width="8.21" height="8.23"/>
      <rect class="cls-4" x="65.71" y="24.68" width="8.21" height="8.23"/>
      <rect class="cls-3" x="57.5" y="24.68" width="8.21" height="8.23"/>
      <rect class="cls-1" x="49.29" y="24.68" width="8.21" height="8.23"/>
      <rect class="cls-1" x="41.07" y="24.68" width="8.21" height="8.23"/>
      <rect class="cls-1" x="32.86" y="24.68" width="8.21" height="8.23"/>
      <rect class="cls-1" x="24.64" y="24.68" width="8.21" height="8.23"/>
      <rect class="cls-3" x="16.43" y="24.68" width="8.21" height="8.23"/>
      <rect class="cls-9" x="8.21" y="24.68" width="8.21" height="8.23"/>
      <rect class="cls-3" x="57.5" y="16.45" width="8.21" height="8.23"/>
      <rect class="cls-3" x="49.29" y="16.45" width="8.21" height="8.23"/>
      <rect class="cls-3" x="41.07" y="16.45" width="8.21" height="8.23"/>
      <rect class="cls-3" x="32.86" y="16.45" width="8.21" height="8.23"/>
      <rect class="cls-3" x="24.64" y="16.45" width="8.21" height="8.23"/>
      <rect class="cls-3" x="16.43" y="16.45" width="8.21" height="8.23"/>
      <rect class="cls-5" x="8.21" y="16.45" width="8.21" height="8.23"/>
      <rect class="cls-5" x="57.5" y="8.23" width="8.21" height="8.23"/>
      <rect class="cls-3" x="49.29" y="8.23" width="8.21" height="8.23"/>
      <rect class="cls-3" x="41.07" y="8.23" width="8.21" height="8.23"/>
      <rect class="cls-3" x="32.86" y="8.23" width="8.21" height="8.23"/>
      <rect class="cls-3" x="24.64" y="8.23" width="8.21" height="8.23"/>
      <rect class="cls-5" x="16.43" y="8.23" width="8.21" height="8.23"/>
      <rect class="cls-5" x="49.29" width="8.21" height="8.23"/>
      <rect class="cls-5" x="41.07" width="8.21" height="8.23"/>
      <rect class="cls-5" x="32.86" width="8.21" height="8.23"/>
      <rect class="cls-5" x="24.64" width="8.21" height="8.23"/>
    </g>
  </g>
</svg>