<?xml version="1.0" encoding="UTF-8"?>
<svg id="Vrstva_2" data-name="Vrstva 2" xmlns="http://www.w3.org/2000/svg" viewBox="0 0 142 158">
  <defs>
    <style>
      .cls-1 {
        fill: #6a6a6a;
      }

      .cls-2 {
        fill: #2d3333;
      }

      .cls-3 {
        fill: #f6b481;
      }

      .cls-4 {
        fill: #926e57;
      }

      .cls-5 {
        fill: #5f5f5e;
      }

      .cls-6 {
        fill: #2a282a;
      }

      .cls-7 {
        fill: #343434;
      }

      .cls-8 {
        fill: #2c2c2d;
      }

      .cls-9 {
        fill: #efb587;
      }

      .cls-10 {
        fill: #c29472;
      }

      .cls-11 {
        fill: #fff;
      }

      .cls-12 {
        fill: #202021;
      }

      .cls-13 {
        fill: #333434;
      }

      .cls-14 {
        fill: #584234;
      }

      .cls-15 {
        fill: #9d7559;
      }

      .cls-16 {
        fill: #29272a;
      }

      .cls-17 {
        fill: #74443d;
      }

      .cls-18 {
        fill: #343535;
      }

      .cls-19 {
        fill: #ae7f59;
      }

      .cls-20 {
        fill: #d57757;
      }

      .cls-21 {
        fill: #f1b687;
      }

      .cls-22 {
        fill: #5e4536;
      }

      .cls-23 {
        fill: #545251;
      }

      .cls-24 {
        fill: #efb586;
      }

      .cls-25 {
        fill: #363636;
      }

      .cls-26 {
        fill: #f2b789;
      }

      .cls-27 {
        fill: #a19a97;
      }

      .cls-28 {
        fill: #71433b;
      }

      .cls-29 {
        fill: #5f5e5e;
      }

      .cls-30 {
        fill: #1e1f1f;
      }

      .cls-31 {
        fill: #ad7e5a;
      }

      .cls-32 {
        fill: #cfa479;
      }

      .cls-33 {
        fill: #2f2f31;
      }

      .cls-34 {
        fill: #59483f;
      }

      .cls-35 {
        fill: #1d1f1f;
      }

      .cls-36 {
        fill: #eaa36e;
      }

      .cls-37 {
        fill: #0d0e10;
      }

      .cls-38 {
        fill: #282728;
      }

      .cls-39 {
        fill: #e48b51;
      }

      .cls-40 {
        fill: #29292a;
      }

      .cls-41 {
        fill: #323232;
      }

      .cls-42 {
        fill: #2e3434;
      }

      .cls-43 {
        fill: #f29859;
      }

      .cls-44 {
        fill: #ed9153;
      }

      .cls-45 {
        fill: #f6b480;
      }

      .cls-46 {
        fill: #4a372c;
      }

      .cls-47 {
        fill: #9e755a;
      }

      .cls-48 {
        fill: #e48b52;
      }

      .cls-49 {
        fill: #edaf7f;
      }

      .cls-50 {
        fill: #3e3c3a;
      }

      .cls-51 {
        fill: #645045;
      }

      .cls-52 {
        fill: #18191b;
      }

      .cls-53 {
        fill: #1d1e1d;
      }

      .cls-54 {
        fill: #f3bc8d;
      }

      .cls-55 {
        fill: #ebb183;
      }

      .cls-56 {
        fill: #1e1e1f;
      }

      .cls-57 {
        fill: #e48c52;
      }

      .cls-58 {
        fill: #333;
      }

      .cls-59 {
        fill: #3f3028;
      }

      .cls-60 {
        fill: #1f1e1e;
      }

      .cls-61 {
        fill: #462a25;
      }

      .cls-62 {
        fill: #2a2a2a;
      }

      .cls-63 {
        fill: #a87e61;
      }

      .cls-64 {
        fill: #282828;
      }

      .cls-65 {
        fill: #272728;
      }

      .cls-66 {
        fill: #383939;
      }

      .cls-67 {
        fill: #2a2a2b;
      }

      .cls-68 {
        fill: #565352;
      }

      .cls-69 {
        fill: #9c7e6a;
      }

      .cls-70 {
        fill: #9b7e6a;
      }

      .cls-71 {
        fill: #0f1113;
      }

      .cls-72 {
        fill: #565351;
      }

      .cls-73 {
        fill: #43302c;
      }

      .cls-74 {
        fill: #242424;
      }

      .cls-75 {
        fill: #eead7d;
      }

      .cls-76 {
        fill: #edad7d;
      }

      .cls-77 {
        fill: #936c4f;
      }

      .cls-78 {
        fill: #bf9371;
      }

      .cls-79 {
        fill: #272727;
      }

      .cls-80 {
        fill: #a0826c;
      }

      .cls-81 {
        fill: #1b1b1c;
      }

      .cls-82 {
        fill: #1d1e1e;
      }

      .cls-83 {
        fill: #efb385;
      }

      .cls-84 {
        fill: #352b28;
      }

      .cls-85 {
        fill: #f2b17f;
      }

      .cls-86 {
        fill: #ed9356;
      }

      .cls-87 {
        fill: #efb585;
      }

      .cls-88 {
        fill: #edb181;
      }

      .cls-89 {
        fill: #1c1d1d;
      }

      .cls-90 {
        fill: #f2b788;
      }

      .cls-91 {
        fill: #f0b282;
      }

      .cls-92 {
        fill: #422823;
      }

      .cls-93 {
        fill: #1e2020;
      }

      .cls-94 {
        fill: #313133;
      }

      .cls-95 {
        fill: #212020;
      }

      .cls-96 {
        fill: #f0b688;
      }

      .cls-97 {
        fill: #222123;
      }

      .cls-98 {
        fill: #efb384;
      }

      .cls-99 {
        fill: #2c2c2c;
      }

      .cls-100 {
        fill: #1c1f1f;
      }

      .cls-101 {
        fill: #202020;
      }

      .cls-102 {
        fill: #181a1b;
      }

      .cls-103 {
        fill: #9b7e69;
      }

      .cls-104 {
        fill: #333233;
      }

      .cls-105 {
        fill: #eead7c;
      }

      .cls-106 {
        fill: #353535;
      }

      .cls-107 {
        fill: #676766;
      }

      .cls-108 {
        fill: #f0b585;
      }

      .cls-109 {
        fill: #2d2d2d;
      }

      .cls-110 {
        fill: #383838;
      }

      .cls-111 {
        fill: #675348;
      }

      .cls-112 {
        fill: #191f20;
      }

      .cls-113 {
        fill: #656564;
      }

      .cls-114 {
        fill: #5d4437;
      }

      .cls-115 {
        fill: #333334;
      }

      .cls-116 {
        fill: #f0b586;
      }

      .cls-117 {
        fill: #e28b50;
      }

      .cls-118 {
        fill: #1a1b1c;
      }

      .cls-119 {
        fill: #bb8f6f;
      }

      .cls-120 {
        fill: #1f1f1f;
      }

      .cls-121 {
        fill: #1f2122;
      }

      .cls-122 {
        fill: #523d30;
      }

      .cls-123 {
        fill: #181c1d;
      }

      .cls-124 {
        fill: #eeb282;
      }

      .cls-125 {
        fill: #5b4536;
      }

      .cls-126 {
        fill: #edad7c;
      }

      .cls-127 {
        fill: #daae82;
      }

      .cls-128 {
        fill: #8b6853;
      }

      .cls-129 {
        fill: #edab7a;
      }

      .cls-130 {
        fill: #3a3b3b;
      }

      .cls-131 {
        fill: #f5b481;
      }

      .cls-132 {
        fill: #f1b181;
      }

      .cls-133 {
        fill: #e2894e;
      }

      .cls-134 {
        fill: #1e1e1e;
      }

      .cls-135 {
        fill: #342a27;
      }

      .cls-136 {
        fill: #eec692;
      }

      .cls-137 {
        fill: #e4ae82;
      }

      .cls-138 {
        fill: #a49d99;
      }

      .cls-139 {
        fill: #252627;
      }

      .cls-140 {
        fill: #1b1b1d;
      }

      .cls-141 {
        fill: #3c3c3c;
      }

      .cls-142 {
        fill: #666665;
      }

      .cls-143 {
        fill: #f6bb8b;
      }
    </style>
  </defs>
  <g id="Vrstva_1-2" data-name="Vrstva 1">
    <g>
      <rect class="cls-120" x="91.29" y="152.9" width="5.07" height="5.1"/>
      <rect class="cls-120" x="86.21" y="152.9" width="5.07" height="5.1"/>
      <rect class="cls-120" x="81.14" y="152.9" width="5.07" height="5.1"/>
      <rect class="cls-120" x="76.07" y="152.9" width="5.07" height="5.1"/>
      <rect class="cls-120" x="71" y="152.9" width="5.07" height="5.1"/>
      <rect class="cls-120" x="65.93" y="152.9" width="5.07" height="5.1"/>
      <rect class="cls-120" x="60.86" y="152.9" width="5.07" height="5.1"/>
      <rect class="cls-120" x="55.79" y="152.9" width="5.07" height="5.1"/>
      <rect class="cls-120" x="50.71" y="152.9" width="5.07" height="5.1"/>
      <rect class="cls-120" x="45.64" y="152.9" width="5.07" height="5.1"/>
      <rect class="cls-82" x="91.29" y="147.81" width="5.07" height="5.1"/>
      <rect class="cls-28" x="86.21" y="147.81" width="5.07" height="5.1"/>
      <rect class="cls-28" x="81.14" y="147.81" width="5.07" height="5.1"/>
      <rect class="cls-92" x="76.07" y="147.81" width="5.07" height="5.1"/>
      <rect class="cls-35" x="71" y="147.81" width="5.07" height="5.1"/>
      <rect class="cls-73" x="65.93" y="147.81" width="5.07" height="5.1"/>
      <rect class="cls-28" x="60.86" y="147.81" width="5.07" height="5.1"/>
      <rect class="cls-17" x="55.79" y="147.81" width="5.07" height="5.1"/>
      <rect class="cls-61" x="50.71" y="147.81" width="5.07" height="5.1"/>
      <rect class="cls-120" x="45.64" y="147.81" width="5.07" height="5.1"/>
      <rect class="cls-123" x="86.21" y="142.71" width="5.07" height="5.1"/>
      <rect class="cls-2" x="81.14" y="142.71" width="5.07" height="5.1"/>
      <rect class="cls-35" x="76.07" y="142.71" width="5.07" height="5.1"/>
      <rect class="cls-120" x="71" y="142.71" width="5.07" height="5.1"/>
      <rect class="cls-35" x="65.93" y="142.71" width="5.07" height="5.1"/>
      <rect class="cls-112" x="60.86" y="142.71" width="5.07" height="5.1"/>
      <rect class="cls-42" x="55.79" y="142.71" width="5.07" height="5.1"/>
      <rect class="cls-100" x="50.71" y="142.71" width="5.07" height="5.1"/>
      <rect class="cls-120" x="45.64" y="142.71" width="5.07" height="5.1"/>
      <rect class="cls-101" x="91.29" y="137.61" width="5.07" height="5.1"/>
      <rect class="cls-120" x="86.21" y="137.61" width="5.07" height="5.1"/>
      <rect class="cls-58" x="81.14" y="137.61" width="5.07" height="5.1"/>
      <rect class="cls-120" x="76.07" y="137.61" width="5.07" height="5.1"/>
      <rect class="cls-120" x="71" y="137.61" width="5.07" height="5.1"/>
      <rect class="cls-120" x="65.93" y="137.61" width="5.07" height="5.1"/>
      <rect class="cls-12" x="60.86" y="137.61" width="5.07" height="5.1"/>
      <rect class="cls-13" x="55.79" y="137.61" width="5.07" height="5.1"/>
      <rect class="cls-120" x="50.71" y="137.61" width="5.07" height="5.1"/>
      <rect class="cls-120" x="45.64" y="137.61" width="5.07" height="5.1"/>
      <rect class="cls-140" x="91.29" y="132.52" width="5.07" height="5.1"/>
      <rect class="cls-31" x="86.21" y="132.52" width="5.07" height="5.1"/>
      <rect class="cls-74" x="81.14" y="132.52" width="5.07" height="5.1"/>
      <rect class="cls-120" x="76.07" y="132.52" width="5.07" height="5.1"/>
      <rect class="cls-120" x="71" y="132.52" width="5.07" height="5.1"/>
      <rect class="cls-120" x="65.93" y="132.52" width="5.07" height="5.1"/>
      <rect class="cls-93" x="60.86" y="132.52" width="5.07" height="5.1"/>
      <rect class="cls-121" x="55.79" y="132.52" width="5.07" height="5.1"/>
      <rect class="cls-31" x="50.71" y="132.52" width="5.07" height="5.1"/>
      <rect class="cls-19" x="45.64" y="132.52" width="5.07" height="5.1"/>
      <rect class="cls-113" x="40.57" y="132.52" width="5.07" height="5.1"/>
      <rect class="cls-89" x="91.29" y="127.42" width="5.07" height="5.1"/>
      <rect class="cls-77" x="86.21" y="127.42" width="5.07" height="5.1"/>
      <rect class="cls-38" x="81.14" y="127.42" width="5.07" height="5.1"/>
      <rect class="cls-38" x="76.07" y="127.42" width="5.07" height="5.1"/>
      <rect class="cls-38" x="71" y="127.42" width="5.07" height="5.1"/>
      <rect class="cls-38" x="65.93" y="127.42" width="5.07" height="5.1"/>
      <rect class="cls-79" x="60.86" y="127.42" width="5.07" height="5.1"/>
      <rect class="cls-82" x="55.79" y="127.42" width="5.07" height="5.1"/>
      <rect class="cls-15" x="50.71" y="127.42" width="5.07" height="5.1"/>
      <rect class="cls-47" x="45.64" y="127.42" width="5.07" height="5.1"/>
      <rect class="cls-120" x="40.57" y="127.42" width="5.07" height="5.1"/>
      <rect class="cls-120" x="91.29" y="122.32" width="5.07" height="5.1"/>
      <rect class="cls-120" x="86.21" y="122.32" width="5.07" height="5.1"/>
      <rect class="cls-58" x="81.14" y="122.32" width="5.07" height="5.1"/>
      <rect class="cls-50" x="76.07" y="122.32" width="5.07" height="5.1"/>
      <rect class="cls-58" x="71" y="122.32" width="5.07" height="5.1"/>
      <rect class="cls-58" x="65.93" y="122.32" width="5.07" height="5.1"/>
      <rect class="cls-104" x="60.86" y="122.32" width="5.07" height="5.1"/>
      <rect class="cls-30" x="55.79" y="122.32" width="5.07" height="5.1"/>
      <rect class="cls-58" x="50.71" y="122.32" width="5.07" height="5.1"/>
      <rect class="cls-58" x="45.64" y="122.32" width="5.07" height="5.1"/>
      <rect class="cls-120" x="40.57" y="122.32" width="5.07" height="5.1"/>
      <rect class="cls-120" x="91.29" y="117.23" width="5.07" height="5.1"/>
      <rect class="cls-120" x="86.21" y="117.23" width="5.07" height="5.1"/>
      <rect class="cls-58" x="81.14" y="117.23" width="5.07" height="5.1"/>
      <rect class="cls-11" x="76.07" y="117.23" width="5.07" height="5.1"/>
      <rect class="cls-37" x="71" y="117.23" width="5.07" height="5.1"/>
      <rect class="cls-139" x="65.93" y="117.23" width="5.07" height="5.1"/>
      <rect class="cls-104" x="60.86" y="117.23" width="5.07" height="5.1"/>
      <rect class="cls-30" x="55.79" y="117.23" width="5.07" height="5.1"/>
      <rect class="cls-58" x="50.71" y="117.23" width="5.07" height="5.1"/>
      <rect class="cls-58" x="45.64" y="117.23" width="5.07" height="5.1"/>
      <rect class="cls-120" x="40.57" y="117.23" width="5.07" height="5.1"/>
      <rect class="cls-120" x="91.29" y="112.13" width="5.07" height="5.1"/>
      <rect class="cls-120" x="86.21" y="112.13" width="5.07" height="5.1"/>
      <rect class="cls-58" x="81.14" y="112.13" width="5.07" height="5.1"/>
      <rect class="cls-11" x="76.07" y="112.13" width="5.07" height="5.1"/>
      <rect class="cls-11" x="71" y="112.13" width="5.07" height="5.1"/>
      <rect class="cls-27" x="65.93" y="112.13" width="5.07" height="5.1"/>
      <rect class="cls-104" x="60.86" y="112.13" width="5.07" height="5.1"/>
      <rect class="cls-30" x="55.79" y="112.13" width="5.07" height="5.1"/>
      <rect class="cls-58" x="50.71" y="112.13" width="5.07" height="5.1"/>
      <rect class="cls-115" x="45.64" y="112.13" width="5.07" height="5.1"/>
      <rect class="cls-120" x="40.57" y="112.13" width="5.07" height="5.1"/>
      <rect class="cls-120" x="86.21" y="107.03" width="5.07" height="5.1"/>
      <rect class="cls-7" x="81.14" y="107.03" width="5.07" height="5.1"/>
      <rect class="cls-11" x="76.07" y="107.03" width="5.07" height="5.1"/>
      <rect class="cls-11" x="71" y="107.03" width="5.07" height="5.1"/>
      <rect class="cls-138" x="65.93" y="107.03" width="5.07" height="5.1"/>
      <rect class="cls-7" x="60.86" y="107.03" width="5.07" height="5.1"/>
      <rect class="cls-7" x="55.79" y="107.03" width="5.07" height="5.1"/>
      <rect class="cls-25" x="50.71" y="107.03" width="5.07" height="5.1"/>
      <rect class="cls-120" x="45.64" y="107.03" width="5.07" height="5.1"/>
      <rect class="cls-120" x="96.36" y="101.94" width="5.07" height="5.1"/>
      <rect class="cls-120" x="91.29" y="101.94" width="5.07" height="5.1"/>
      <rect class="cls-120" x="86.21" y="101.94" width="5.07" height="5.1"/>
      <rect class="cls-120" x="81.14" y="101.94" width="5.07" height="5.1"/>
      <rect class="cls-120" x="76.07" y="101.94" width="5.07" height="5.1"/>
      <rect class="cls-120" x="71" y="101.94" width="5.07" height="5.1"/>
      <rect class="cls-120" x="65.93" y="101.94" width="5.07" height="5.1"/>
      <rect class="cls-120" x="60.86" y="101.94" width="5.07" height="5.1"/>
      <rect class="cls-120" x="55.79" y="101.94" width="5.07" height="5.1"/>
      <rect class="cls-120" x="50.71" y="101.94" width="5.07" height="5.1"/>
      <rect class="cls-120" x="45.64" y="101.94" width="5.07" height="5.1"/>
      <rect class="cls-120" x="40.57" y="101.94" width="5.07" height="5.1"/>
      <rect class="cls-95" x="101.43" y="96.84" width="5.07" height="5.1"/>
      <rect class="cls-122" x="96.36" y="96.84" width="5.07" height="5.1"/>
      <rect class="cls-122" x="91.29" y="96.84" width="5.07" height="5.1"/>
      <rect class="cls-122" x="86.21" y="96.84" width="5.07" height="5.1"/>
      <rect class="cls-122" x="81.14" y="96.84" width="5.07" height="5.1"/>
      <rect class="cls-122" x="76.07" y="96.84" width="5.07" height="5.1"/>
      <rect class="cls-143" x="71" y="96.84" width="5.07" height="5.1"/>
      <rect class="cls-124" x="65.93" y="96.84" width="5.07" height="5.1"/>
      <rect class="cls-76" x="60.86" y="96.84" width="5.07" height="5.1"/>
      <rect class="cls-76" x="55.79" y="96.84" width="5.07" height="5.1"/>
      <rect class="cls-76" x="50.71" y="96.84" width="5.07" height="5.1"/>
      <rect class="cls-76" x="45.64" y="96.84" width="5.07" height="5.1"/>
      <rect class="cls-57" x="40.57" y="96.84" width="5.07" height="5.1"/>
      <rect class="cls-82" x="35.5" y="96.84" width="5.07" height="5.1"/>
      <rect class="cls-84" x="106.5" y="91.74" width="5.07" height="5.1"/>
      <rect class="cls-22" x="101.43" y="91.74" width="5.07" height="5.1"/>
      <rect class="cls-43" x="96.36" y="91.74" width="5.07" height="5.1"/>
      <rect class="cls-122" x="91.29" y="91.74" width="5.07" height="5.1"/>
      <rect class="cls-122" x="86.21" y="91.74" width="5.07" height="5.1"/>
      <rect class="cls-122" x="81.14" y="91.74" width="5.07" height="5.1"/>
      <rect class="cls-44" x="76.07" y="91.74" width="5.07" height="5.1"/>
      <rect class="cls-59" x="71" y="91.74" width="5.07" height="5.1"/>
      <rect class="cls-128" x="65.93" y="91.74" width="5.07" height="5.1"/>
      <rect class="cls-91" x="60.86" y="91.74" width="5.07" height="5.1"/>
      <rect class="cls-133" x="55.79" y="91.74" width="5.07" height="5.1"/>
      <rect class="cls-126" x="50.71" y="91.74" width="5.07" height="5.1"/>
      <rect class="cls-126" x="45.64" y="91.74" width="5.07" height="5.1"/>
      <rect class="cls-49" x="40.57" y="91.74" width="5.07" height="5.1"/>
      <rect class="cls-86" x="35.5" y="91.74" width="5.07" height="5.1"/>
      <rect class="cls-89" x="30.43" y="91.74" width="5.07" height="5.1"/>
      <rect class="cls-135" x="106.5" y="86.65" width="5.07" height="5.1"/>
      <rect class="cls-125" x="101.43" y="86.65" width="5.07" height="5.1"/>
      <rect class="cls-54" x="96.36" y="86.65" width="5.07" height="5.1"/>
      <rect class="cls-20" x="91.29" y="86.65" width="5.07" height="5.1"/>
      <rect class="cls-20" x="86.21" y="86.65" width="5.07" height="5.1"/>
      <rect class="cls-20" x="81.14" y="86.65" width="5.07" height="5.1"/>
      <rect class="cls-21" x="76.07" y="86.65" width="5.07" height="5.1"/>
      <rect class="cls-46" x="71" y="86.65" width="5.07" height="5.1"/>
      <rect class="cls-4" x="65.93" y="86.65" width="5.07" height="5.1"/>
      <rect class="cls-88" x="60.86" y="86.65" width="5.07" height="5.1"/>
      <rect class="cls-117" x="55.79" y="86.65" width="5.07" height="5.1"/>
      <rect class="cls-126" x="50.71" y="86.65" width="5.07" height="5.1"/>
      <rect class="cls-126" x="45.64" y="86.65" width="5.07" height="5.1"/>
      <rect class="cls-126" x="40.57" y="86.65" width="5.07" height="5.1"/>
      <rect class="cls-39" x="35.5" y="86.65" width="5.07" height="5.1"/>
      <rect class="cls-89" x="30.43" y="86.65" width="5.07" height="5.1"/>
      <rect class="cls-51" x="106.5" y="81.55" width="5.07" height="5.1"/>
      <rect class="cls-32" x="101.43" y="81.55" width="5.07" height="5.1"/>
      <rect class="cls-114" x="96.36" y="81.55" width="5.07" height="5.1"/>
      <rect class="cls-14" x="91.29" y="81.55" width="5.07" height="5.1"/>
      <rect class="cls-14" x="86.21" y="81.55" width="5.07" height="5.1"/>
      <rect class="cls-14" x="81.14" y="81.55" width="5.07" height="5.1"/>
      <rect class="cls-114" x="76.07" y="81.55" width="5.07" height="5.1"/>
      <rect class="cls-127" x="71" y="81.55" width="5.07" height="5.1"/>
      <rect class="cls-137" x="65.93" y="81.55" width="5.07" height="5.1"/>
      <rect class="cls-87" x="60.86" y="81.55" width="5.07" height="5.1"/>
      <rect class="cls-98" x="55.79" y="81.55" width="5.07" height="5.1"/>
      <rect class="cls-48" x="50.71" y="81.55" width="5.07" height="5.1"/>
      <rect class="cls-126" x="45.64" y="81.55" width="5.07" height="5.1"/>
      <rect class="cls-126" x="40.57" y="81.55" width="5.07" height="5.1"/>
      <rect class="cls-129" x="35.5" y="81.55" width="5.07" height="5.1"/>
      <rect class="cls-118" x="30.43" y="81.55" width="5.07" height="5.1"/>
      <rect class="cls-111" x="106.5" y="76.45" width="5.07" height="5.1"/>
      <rect class="cls-55" x="101.43" y="76.45" width="5.07" height="5.1"/>
      <rect class="cls-63" x="96.36" y="76.45" width="5.07" height="5.1"/>
      <rect class="cls-63" x="91.29" y="76.45" width="5.07" height="5.1"/>
      <rect class="cls-63" x="86.21" y="76.45" width="5.07" height="5.1"/>
      <rect class="cls-63" x="81.14" y="76.45" width="5.07" height="5.1"/>
      <rect class="cls-63" x="76.07" y="76.45" width="5.07" height="5.1"/>
      <rect class="cls-90" x="71" y="76.45" width="5.07" height="5.1"/>
      <rect class="cls-83" x="65.93" y="76.45" width="5.07" height="5.1"/>
      <rect class="cls-83" x="60.86" y="76.45" width="5.07" height="5.1"/>
      <rect class="cls-116" x="55.79" y="76.45" width="5.07" height="5.1"/>
      <rect class="cls-36" x="50.71" y="76.45" width="5.07" height="5.1"/>
      <rect class="cls-126" x="45.64" y="76.45" width="5.07" height="5.1"/>
      <rect class="cls-126" x="40.57" y="76.45" width="5.07" height="5.1"/>
      <rect class="cls-126" x="35.5" y="76.45" width="5.07" height="5.1"/>
      <rect class="cls-118" x="30.43" y="76.45" width="5.07" height="5.1"/>
      <rect class="cls-34" x="106.5" y="71.35" width="5.07" height="5.1"/>
      <rect class="cls-78" x="101.43" y="71.35" width="5.07" height="5.1"/>
      <rect class="cls-119" x="96.36" y="71.35" width="5.07" height="5.1"/>
      <rect class="cls-26" x="91.29" y="71.35" width="5.07" height="5.1"/>
      <rect class="cls-78" x="86.21" y="71.35" width="5.07" height="5.1"/>
      <rect class="cls-78" x="81.14" y="71.35" width="5.07" height="5.1"/>
      <rect class="cls-78" x="76.07" y="71.35" width="5.07" height="5.1"/>
      <rect class="cls-78" x="71" y="71.35" width="5.07" height="5.1"/>
      <rect class="cls-78" x="65.93" y="71.35" width="5.07" height="5.1"/>
      <rect class="cls-10" x="60.86" y="71.35" width="5.07" height="5.1"/>
      <rect class="cls-83" x="55.79" y="71.35" width="5.07" height="5.1"/>
      <rect class="cls-24" x="50.71" y="71.35" width="5.07" height="5.1"/>
      <rect class="cls-126" x="45.64" y="71.35" width="5.07" height="5.1"/>
      <rect class="cls-126" x="40.57" y="71.35" width="5.07" height="5.1"/>
      <rect class="cls-126" x="35.5" y="71.35" width="5.07" height="5.1"/>
      <rect class="cls-118" x="30.43" y="71.35" width="5.07" height="5.1"/>
      <rect class="cls-120" x="116.64" y="66.26" width="5.07" height="5.1"/>
      <rect class="cls-120" x="111.57" y="66.26" width="5.07" height="5.1"/>
      <rect class="cls-120" x="106.5" y="66.26" width="5.07" height="5.1"/>
      <rect class="cls-120" x="101.43" y="66.26" width="5.07" height="5.1"/>
      <rect class="cls-71" x="96.36" y="66.26" width="5.07" height="5.1"/>
      <rect class="cls-136" x="91.29" y="66.26" width="5.07" height="5.1"/>
      <rect class="cls-120" x="86.21" y="66.26" width="5.07" height="5.1"/>
      <rect class="cls-120" x="81.14" y="66.26" width="5.07" height="5.1"/>
      <rect class="cls-120" x="76.07" y="66.26" width="5.07" height="5.1"/>
      <rect class="cls-120" x="71" y="66.26" width="5.07" height="5.1"/>
      <rect class="cls-120" x="65.93" y="66.26" width="5.07" height="5.1"/>
      <rect class="cls-16" x="60.86" y="66.26" width="5.07" height="5.1"/>
      <rect class="cls-9" x="55.79" y="66.26" width="5.07" height="5.1"/>
      <rect class="cls-96" x="50.71" y="66.26" width="5.07" height="5.1"/>
      <rect class="cls-105" x="45.64" y="66.26" width="5.07" height="5.1"/>
      <rect class="cls-132" x="40.57" y="66.26" width="5.07" height="5.1"/>
      <rect class="cls-76" x="35.5" y="66.26" width="5.07" height="5.1"/>
      <rect class="cls-118" x="30.43" y="66.26" width="5.07" height="5.1"/>
      <rect class="cls-120" x="116.64" y="61.16" width="5.07" height="5.1"/>
      <rect class="cls-120" x="111.57" y="61.16" width="5.07" height="5.1"/>
      <rect class="cls-120" x="106.5" y="61.16" width="5.07" height="5.1"/>
      <rect class="cls-120" x="101.43" y="61.16" width="5.07" height="5.1"/>
      <rect class="cls-120" x="96.36" y="61.16" width="5.07" height="5.1"/>
      <rect class="cls-120" x="91.29" y="61.16" width="5.07" height="5.1"/>
      <rect class="cls-120" x="86.21" y="61.16" width="5.07" height="5.1"/>
      <rect class="cls-120" x="81.14" y="61.16" width="5.07" height="5.1"/>
      <rect class="cls-120" x="76.07" y="61.16" width="5.07" height="5.1"/>
      <rect class="cls-120" x="71" y="61.16" width="5.07" height="5.1"/>
      <rect class="cls-120" x="65.93" y="61.16" width="5.07" height="5.1"/>
      <rect class="cls-6" x="60.86" y="61.16" width="5.07" height="5.1"/>
      <rect class="cls-131" x="55.79" y="61.16" width="5.07" height="5.1"/>
      <rect class="cls-131" x="50.71" y="61.16" width="5.07" height="5.1"/>
      <rect class="cls-45" x="45.64" y="61.16" width="5.07" height="5.1"/>
      <rect class="cls-80" x="40.57" y="61.16" width="5.07" height="5.1"/>
      <rect class="cls-3" x="35.5" y="61.16" width="5.07" height="5.1"/>
      <rect class="cls-118" x="30.43" y="61.16" width="5.07" height="5.1"/>
      <rect class="cls-120" x="116.64" y="56.06" width="5.07" height="5.1"/>
      <rect class="cls-120" x="111.57" y="56.06" width="5.07" height="5.1"/>
      <rect class="cls-82" x="106.5" y="56.06" width="5.07" height="5.1"/>
      <rect class="cls-102" x="101.43" y="56.06" width="5.07" height="5.1"/>
      <rect class="cls-102" x="96.36" y="56.06" width="5.07" height="5.1"/>
      <rect class="cls-102" x="91.29" y="56.06" width="5.07" height="5.1"/>
      <rect class="cls-102" x="86.21" y="56.06" width="5.07" height="5.1"/>
      <rect class="cls-102" x="81.14" y="56.06" width="5.07" height="5.1"/>
      <rect class="cls-102" x="76.07" y="56.06" width="5.07" height="5.1"/>
      <rect class="cls-52" x="71" y="56.06" width="5.07" height="5.1"/>
      <rect class="cls-52" x="65.93" y="56.06" width="5.07" height="5.1"/>
      <rect class="cls-52" x="60.86" y="56.06" width="5.07" height="5.1"/>
      <rect class="cls-52" x="55.79" y="56.06" width="5.07" height="5.1"/>
      <rect class="cls-52" x="50.71" y="56.06" width="5.07" height="5.1"/>
      <rect class="cls-81" x="45.64" y="56.06" width="5.07" height="5.1"/>
      <rect class="cls-81" x="40.57" y="56.06" width="5.07" height="5.1"/>
      <rect class="cls-81" x="35.5" y="56.06" width="5.07" height="5.1"/>
      <rect class="cls-120" x="30.43" y="56.06" width="5.07" height="5.1"/>
      <rect class="cls-120" x="131.86" y="50.97" width="5.07" height="5.1"/>
      <rect class="cls-120" x="126.79" y="50.97" width="5.07" height="5.1"/>
      <rect class="cls-120" x="121.71" y="50.97" width="5.07" height="5.1"/>
      <rect class="cls-120" x="116.64" y="50.97" width="5.07" height="5.1"/>
      <rect class="cls-120" x="111.57" y="50.97" width="5.07" height="5.1"/>
      <rect class="cls-111" x="106.5" y="50.97" width="5.07" height="5.1"/>
      <rect class="cls-108" x="101.43" y="50.97" width="5.07" height="5.1"/>
      <rect class="cls-108" x="96.36" y="50.97" width="5.07" height="5.1"/>
      <rect class="cls-108" x="91.29" y="50.97" width="5.07" height="5.1"/>
      <rect class="cls-108" x="86.21" y="50.97" width="5.07" height="5.1"/>
      <rect class="cls-108" x="81.14" y="50.97" width="5.07" height="5.1"/>
      <rect class="cls-108" x="76.07" y="50.97" width="5.07" height="5.1"/>
      <rect class="cls-75" x="71" y="50.97" width="5.07" height="5.1"/>
      <rect class="cls-76" x="65.93" y="50.97" width="5.07" height="5.1"/>
      <rect class="cls-76" x="60.86" y="50.97" width="5.07" height="5.1"/>
      <rect class="cls-76" x="55.79" y="50.97" width="5.07" height="5.1"/>
      <rect class="cls-85" x="50.71" y="50.97" width="5.07" height="5.1"/>
      <rect class="cls-70" x="45.64" y="50.97" width="5.07" height="5.1"/>
      <rect class="cls-103" x="40.57" y="50.97" width="5.07" height="5.1"/>
      <rect class="cls-69" x="35.5" y="50.97" width="5.07" height="5.1"/>
      <rect class="cls-89" x="30.43" y="50.97" width="5.07" height="5.1"/>
      <rect class="cls-120" x="25.36" y="50.97" width="5.07" height="5.1"/>
      <rect class="cls-120" x="20.29" y="50.97" width="5.07" height="5.1"/>
      <rect class="cls-120" x="15.21" y="50.97" width="5.07" height="5.1"/>
      <rect class="cls-120" x="10.14" y="50.97" width="5.07" height="5.1"/>
      <rect class="cls-41" x="5.07" y="50.97" width="5.07" height="5.1"/>
      <rect class="cls-120" x="136.93" y="45.87" width="5.07" height="5.1"/>
      <rect class="cls-115" x="131.86" y="45.87" width="5.07" height="5.1"/>
      <rect class="cls-58" x="126.79" y="45.87" width="5.07" height="5.1"/>
      <rect class="cls-67" x="121.71" y="45.87" width="5.07" height="5.1"/>
      <rect class="cls-67" x="116.64" y="45.87" width="5.07" height="5.1"/>
      <rect class="cls-97" x="111.57" y="45.87" width="5.07" height="5.1"/>
      <rect class="cls-120" x="106.5" y="45.87" width="5.07" height="5.1"/>
      <rect class="cls-120" x="101.43" y="45.87" width="5.07" height="5.1"/>
      <rect class="cls-120" x="96.36" y="45.87" width="5.07" height="5.1"/>
      <rect class="cls-120" x="91.29" y="45.87" width="5.07" height="5.1"/>
      <rect class="cls-120" x="86.21" y="45.87" width="5.07" height="5.1"/>
      <rect class="cls-120" x="81.14" y="45.87" width="5.07" height="5.1"/>
      <rect class="cls-120" x="76.07" y="45.87" width="5.07" height="5.1"/>
      <rect class="cls-120" x="71" y="45.87" width="5.07" height="5.1"/>
      <rect class="cls-120" x="65.93" y="45.87" width="5.07" height="5.1"/>
      <rect class="cls-120" x="60.86" y="45.87" width="5.07" height="5.1"/>
      <rect class="cls-120" x="55.79" y="45.87" width="5.07" height="5.1"/>
      <rect class="cls-120" x="50.71" y="45.87" width="5.07" height="5.1"/>
      <rect class="cls-120" x="45.64" y="45.87" width="5.07" height="5.1"/>
      <rect class="cls-120" x="40.57" y="45.87" width="5.07" height="5.1"/>
      <rect class="cls-120" x="35.5" y="45.87" width="5.07" height="5.1"/>
      <rect class="cls-120" x="30.43" y="45.87" width="5.07" height="5.1"/>
      <rect class="cls-8" x="25.36" y="45.87" width="5.07" height="5.1"/>
      <rect class="cls-67" x="20.29" y="45.87" width="5.07" height="5.1"/>
      <rect class="cls-67" x="15.21" y="45.87" width="5.07" height="5.1"/>
      <rect class="cls-109" x="10.14" y="45.87" width="5.07" height="5.1"/>
      <rect class="cls-58" x="5.07" y="45.87" width="5.07" height="5.1"/>
      <rect class="cls-120" y="45.87" width="5.07" height="5.1"/>
      <rect class="cls-120" x="136.93" y="40.77" width="5.07" height="5.1"/>
      <rect class="cls-115" x="131.86" y="40.77" width="5.07" height="5.1"/>
      <rect class="cls-58" x="126.79" y="40.77" width="5.07" height="5.1"/>
      <rect class="cls-13" x="121.71" y="40.77" width="5.07" height="5.1"/>
      <rect class="cls-13" x="116.64" y="40.77" width="5.07" height="5.1"/>
      <rect class="cls-7" x="111.57" y="40.77" width="5.07" height="5.1"/>
      <rect class="cls-7" x="106.5" y="40.77" width="5.07" height="5.1"/>
      <rect class="cls-7" x="101.43" y="40.77" width="5.07" height="5.1"/>
      <rect class="cls-7" x="96.36" y="40.77" width="5.07" height="5.1"/>
      <rect class="cls-7" x="91.29" y="40.77" width="5.07" height="5.1"/>
      <rect class="cls-7" x="86.21" y="40.77" width="5.07" height="5.1"/>
      <rect class="cls-7" x="81.14" y="40.77" width="5.07" height="5.1"/>
      <rect class="cls-7" x="76.07" y="40.77" width="5.07" height="5.1"/>
      <rect class="cls-7" x="71" y="40.77" width="5.07" height="5.1"/>
      <rect class="cls-7" x="65.93" y="40.77" width="5.07" height="5.1"/>
      <rect class="cls-7" x="60.86" y="40.77" width="5.07" height="5.1"/>
      <rect class="cls-7" x="55.79" y="40.77" width="5.07" height="5.1"/>
      <rect class="cls-7" x="50.71" y="40.77" width="5.07" height="5.1"/>
      <rect class="cls-7" x="45.64" y="40.77" width="5.07" height="5.1"/>
      <rect class="cls-7" x="40.57" y="40.77" width="5.07" height="5.1"/>
      <rect class="cls-7" x="35.5" y="40.77" width="5.07" height="5.1"/>
      <rect class="cls-7" x="30.43" y="40.77" width="5.07" height="5.1"/>
      <rect class="cls-13" x="25.36" y="40.77" width="5.07" height="5.1"/>
      <rect class="cls-13" x="20.29" y="40.77" width="5.07" height="5.1"/>
      <rect class="cls-13" x="15.21" y="40.77" width="5.07" height="5.1"/>
      <rect class="cls-115" x="10.14" y="40.77" width="5.07" height="5.1"/>
      <rect class="cls-58" x="5.07" y="40.77" width="5.07" height="5.1"/>
      <rect class="cls-120" y="40.77" width="5.07" height="5.1"/>
      <rect class="cls-56" x="131.86" y="35.68" width="5.07" height="5.1"/>
      <rect class="cls-56" x="126.79" y="35.68" width="5.07" height="5.1"/>
      <rect class="cls-56" x="121.71" y="35.68" width="5.07" height="5.1"/>
      <rect class="cls-56" x="116.64" y="35.68" width="5.07" height="5.1"/>
      <rect class="cls-56" x="111.57" y="35.68" width="5.07" height="5.1"/>
      <rect class="cls-56" x="106.5" y="35.68" width="5.07" height="5.1"/>
      <rect class="cls-56" x="101.43" y="35.68" width="5.07" height="5.1"/>
      <rect class="cls-56" x="96.36" y="35.68" width="5.07" height="5.1"/>
      <rect class="cls-56" x="91.29" y="35.68" width="5.07" height="5.1"/>
      <rect class="cls-56" x="86.21" y="35.68" width="5.07" height="5.1"/>
      <rect class="cls-56" x="81.14" y="35.68" width="5.07" height="5.1"/>
      <rect class="cls-56" x="76.07" y="35.68" width="5.07" height="5.1"/>
      <rect class="cls-56" x="71" y="35.68" width="5.07" height="5.1"/>
      <rect class="cls-56" x="65.93" y="35.68" width="5.07" height="5.1"/>
      <rect class="cls-56" x="60.86" y="35.68" width="5.07" height="5.1"/>
      <rect class="cls-56" x="55.79" y="35.68" width="5.07" height="5.1"/>
      <rect class="cls-56" x="50.71" y="35.68" width="5.07" height="5.1"/>
      <rect class="cls-56" x="45.64" y="35.68" width="5.07" height="5.1"/>
      <rect class="cls-56" x="40.57" y="35.68" width="5.07" height="5.1"/>
      <rect class="cls-56" x="35.5" y="35.68" width="5.07" height="5.1"/>
      <rect class="cls-56" x="30.43" y="35.68" width="5.07" height="5.1"/>
      <rect class="cls-56" x="25.36" y="35.68" width="5.07" height="5.1"/>
      <rect class="cls-56" x="20.29" y="35.68" width="5.07" height="5.1"/>
      <rect class="cls-56" x="15.21" y="35.68" width="5.07" height="5.1"/>
      <rect class="cls-56" x="10.14" y="35.68" width="5.07" height="5.1"/>
      <rect class="cls-41" x="5.07" y="35.68" width="5.07" height="5.1"/>
      <rect class="cls-1" x="111.57" y="30.58" width="5.07" height="5.1"/>
      <rect class="cls-58" x="106.5" y="30.58" width="5.07" height="5.1"/>
      <rect class="cls-72" x="101.43" y="30.58" width="5.07" height="5.1"/>
      <rect class="cls-142" x="96.36" y="30.58" width="5.07" height="5.1"/>
      <rect class="cls-142" x="91.29" y="30.58" width="5.07" height="5.1"/>
      <rect class="cls-142" x="86.21" y="30.58" width="5.07" height="5.1"/>
      <rect class="cls-23" x="81.14" y="30.58" width="5.07" height="5.1"/>
      <rect class="cls-142" x="76.07" y="30.58" width="5.07" height="5.1"/>
      <rect class="cls-142" x="71" y="30.58" width="5.07" height="5.1"/>
      <rect class="cls-29" x="65.93" y="30.58" width="5.07" height="5.1"/>
      <rect class="cls-68" x="60.86" y="30.58" width="5.07" height="5.1"/>
      <rect class="cls-107" x="55.79" y="30.58" width="5.07" height="5.1"/>
      <rect class="cls-23" x="50.71" y="30.58" width="5.07" height="5.1"/>
      <rect class="cls-23" x="45.64" y="30.58" width="5.07" height="5.1"/>
      <rect class="cls-23" x="40.57" y="30.58" width="5.07" height="5.1"/>
      <rect class="cls-23" x="35.5" y="30.58" width="5.07" height="5.1"/>
      <rect class="cls-134" x="30.43" y="30.58" width="5.07" height="5.1"/>
      <rect class="cls-142" x="111.57" y="25.48" width="5.07" height="5.1"/>
      <rect class="cls-40" x="106.5" y="25.48" width="5.07" height="5.1"/>
      <rect class="cls-66" x="101.43" y="25.48" width="5.07" height="5.1"/>
      <rect class="cls-141" x="96.36" y="25.48" width="5.07" height="5.1"/>
      <rect class="cls-141" x="91.29" y="25.48" width="5.07" height="5.1"/>
      <rect class="cls-141" x="86.21" y="25.48" width="5.07" height="5.1"/>
      <rect class="cls-110" x="81.14" y="25.48" width="5.07" height="5.1"/>
      <rect class="cls-141" x="76.07" y="25.48" width="5.07" height="5.1"/>
      <rect class="cls-141" x="71" y="25.48" width="5.07" height="5.1"/>
      <rect class="cls-130" x="65.93" y="25.48" width="5.07" height="5.1"/>
      <rect class="cls-110" x="60.86" y="25.48" width="5.07" height="5.1"/>
      <rect class="cls-106" x="55.79" y="25.48" width="5.07" height="5.1"/>
      <rect class="cls-104" x="50.71" y="25.48" width="5.07" height="5.1"/>
      <rect class="cls-104" x="45.64" y="25.48" width="5.07" height="5.1"/>
      <rect class="cls-104" x="40.57" y="25.48" width="5.07" height="5.1"/>
      <rect class="cls-104" x="35.5" y="25.48" width="5.07" height="5.1"/>
      <rect class="cls-60" x="30.43" y="25.48" width="5.07" height="5.1"/>
      <rect class="cls-142" x="111.57" y="20.39" width="5.07" height="5.1"/>
      <rect class="cls-65" x="106.5" y="20.39" width="5.07" height="5.1"/>
      <rect class="cls-58" x="101.43" y="20.39" width="5.07" height="5.1"/>
      <rect class="cls-58" x="96.36" y="20.39" width="5.07" height="5.1"/>
      <rect class="cls-58" x="91.29" y="20.39" width="5.07" height="5.1"/>
      <rect class="cls-58" x="86.21" y="20.39" width="5.07" height="5.1"/>
      <rect class="cls-58" x="81.14" y="20.39" width="5.07" height="5.1"/>
      <rect class="cls-58" x="76.07" y="20.39" width="5.07" height="5.1"/>
      <rect class="cls-58" x="71" y="20.39" width="5.07" height="5.1"/>
      <rect class="cls-58" x="65.93" y="20.39" width="5.07" height="5.1"/>
      <rect class="cls-115" x="60.86" y="20.39" width="5.07" height="5.1"/>
      <rect class="cls-33" x="55.79" y="20.39" width="5.07" height="5.1"/>
      <rect class="cls-67" x="50.71" y="20.39" width="5.07" height="5.1"/>
      <rect class="cls-67" x="45.64" y="20.39" width="5.07" height="5.1"/>
      <rect class="cls-67" x="40.57" y="20.39" width="5.07" height="5.1"/>
      <rect class="cls-67" x="35.5" y="20.39" width="5.07" height="5.1"/>
      <rect class="cls-120" x="30.43" y="20.39" width="5.07" height="5.1"/>
      <rect class="cls-142" x="111.57" y="15.29" width="5.07" height="5.1"/>
      <rect class="cls-65" x="106.5" y="15.29" width="5.07" height="5.1"/>
      <rect class="cls-58" x="101.43" y="15.29" width="5.07" height="5.1"/>
      <rect class="cls-58" x="96.36" y="15.29" width="5.07" height="5.1"/>
      <rect class="cls-58" x="91.29" y="15.29" width="5.07" height="5.1"/>
      <rect class="cls-58" x="86.21" y="15.29" width="5.07" height="5.1"/>
      <rect class="cls-58" x="81.14" y="15.29" width="5.07" height="5.1"/>
      <rect class="cls-58" x="76.07" y="15.29" width="5.07" height="5.1"/>
      <rect class="cls-94" x="71" y="15.29" width="5.07" height="5.1"/>
      <rect class="cls-94" x="65.93" y="15.29" width="5.07" height="5.1"/>
      <rect class="cls-94" x="60.86" y="15.29" width="5.07" height="5.1"/>
      <rect class="cls-104" x="55.79" y="15.29" width="5.07" height="5.1"/>
      <rect class="cls-62" x="50.71" y="15.29" width="5.07" height="5.1"/>
      <rect class="cls-62" x="45.64" y="15.29" width="5.07" height="5.1"/>
      <rect class="cls-67" x="40.57" y="15.29" width="5.07" height="5.1"/>
      <rect class="cls-67" x="35.5" y="15.29" width="5.07" height="5.1"/>
      <rect class="cls-120" x="30.43" y="15.29" width="5.07" height="5.1"/>
      <rect class="cls-142" x="111.57" y="10.19" width="5.07" height="5.1"/>
      <rect class="cls-65" x="106.5" y="10.19" width="5.07" height="5.1"/>
      <rect class="cls-58" x="101.43" y="10.19" width="5.07" height="5.1"/>
      <rect class="cls-58" x="96.36" y="10.19" width="5.07" height="5.1"/>
      <rect class="cls-58" x="91.29" y="10.19" width="5.07" height="5.1"/>
      <rect class="cls-58" x="86.21" y="10.19" width="5.07" height="5.1"/>
      <rect class="cls-58" x="81.14" y="10.19" width="5.07" height="5.1"/>
      <rect class="cls-7" x="76.07" y="10.19" width="5.07" height="5.1"/>
      <rect class="cls-53" x="71" y="10.19" width="5.07" height="5.1"/>
      <rect class="cls-134" x="65.93" y="10.19" width="5.07" height="5.1"/>
      <rect class="cls-134" x="60.86" y="10.19" width="5.07" height="5.1"/>
      <rect class="cls-134" x="55.79" y="10.19" width="5.07" height="5.1"/>
      <rect class="cls-134" x="50.71" y="10.19" width="5.07" height="5.1"/>
      <rect class="cls-134" x="45.64" y="10.19" width="5.07" height="5.1"/>
      <rect class="cls-67" x="40.57" y="10.19" width="5.07" height="5.1"/>
      <rect class="cls-99" x="35.5" y="10.19" width="5.07" height="5.1"/>
      <rect class="cls-101" x="30.43" y="10.19" width="5.07" height="5.1"/>
      <rect class="cls-5" x="111.57" y="5.1" width="5.07" height="5.1"/>
      <rect class="cls-64" x="106.5" y="5.1" width="5.07" height="5.1"/>
      <rect class="cls-18" x="101.43" y="5.1" width="5.07" height="5.1"/>
      <rect class="cls-18" x="96.36" y="5.1" width="5.07" height="5.1"/>
      <rect class="cls-18" x="91.29" y="5.1" width="5.07" height="5.1"/>
      <rect class="cls-18" x="86.21" y="5.1" width="5.07" height="5.1"/>
      <rect class="cls-18" x="81.14" y="5.1" width="5.07" height="5.1"/>
      <rect class="cls-99" x="76.07" y="5.1" width="5.07" height="5.1"/>
      <rect class="cls-99" x="71" y="5.1" width="5.07" height="5.1"/>
      <rect class="cls-99" x="65.93" y="5.1" width="5.07" height="5.1"/>
      <rect class="cls-99" x="60.86" y="5.1" width="5.07" height="5.1"/>
      <rect class="cls-99" x="55.79" y="5.1" width="5.07" height="5.1"/>
      <rect class="cls-99" x="50.71" y="5.1" width="5.07" height="5.1"/>
      <rect class="cls-99" x="45.64" y="5.1" width="5.07" height="5.1"/>
      <rect class="cls-99" x="40.57" y="5.1" width="5.07" height="5.1"/>
      <rect class="cls-120" x="35.5" y="5.1" width="5.07" height="5.1"/>
      <rect class="cls-120" x="101.43" width="5.07" height="5.1"/>
      <rect class="cls-120" x="96.36" width="5.07" height="5.1"/>
      <rect class="cls-120" x="91.29" width="5.07" height="5.1"/>
      <rect class="cls-120" x="86.21" width="5.07" height="5.1"/>
      <rect class="cls-120" x="81.14" width="5.07" height="5.1"/>
      <rect class="cls-120" x="76.07" width="5.07" height="5.1"/>
      <rect class="cls-120" x="71" width="5.07" height="5.1"/>
      <rect class="cls-120" x="65.93" width="5.07" height="5.1"/>
      <rect class="cls-120" x="60.86" width="5.07" height="5.1"/>
      <rect class="cls-120" x="55.79" width="5.07" height="5.1"/>
      <rect class="cls-120" x="50.71" width="5.07" height="5.1"/>
      <rect class="cls-120" x="45.64" width="5.07" height="5.1"/>
      <rect class="cls-120" x="40.57" width="5.07" height="5.1"/>
    </g>
  </g>
</svg>