<?xml version="1.0" encoding="UTF-8"?>
<svg id="Vrstva_2" data-name="Vrstva 2" xmlns="http://www.w3.org/2000/svg" viewBox="0 0 118.61 169">
  <defs>
    <style>
      .cls-1 {
        fill: #905554;
      }

      .cls-2 {
        fill: #935757;
      }

      .cls-3 {
        fill: #343434;
      }

      .cls-4 {
        fill: #eff4fa;
      }

      .cls-5 {
        fill: #0c1818;
      }

      .cls-6 {
        fill: #fff;
      }

      .cls-7 {
        fill: #603e3e;
      }

      .cls-8 {
        fill: #8c5252;
      }

      .cls-9 {
        fill: #494848;
      }

      .cls-10 {
        fill: #3d3d3d;
      }

      .cls-11 {
        fill: #343535;
      }

      .cls-12 {
        fill: #6c343c;
      }

      .cls-13 {
        fill: #e9f1fa;
      }

      .cls-14 {
        fill: #63373b;
      }

      .cls-15 {
        fill: #533b3a;
      }

      .cls-16 {
        fill: #4f3034;
      }

      .cls-17 {
        fill: #363636;
      }

      .cls-18 {
        fill: #9a5758;
      }

      .cls-19 {
        fill: #3e2b2d;
      }

      .cls-20 {
        fill: #7f4342;
      }

      .cls-21 {
        fill: #734748;
      }

      .cls-22 {
        fill: #654141;
      }

      .cls-23 {
        fill: #754347;
      }

      .cls-24 {
        fill: #1e1f1f;
      }

      .cls-25 {
        fill: #7f4a4b;
      }

      .cls-26 {
        fill: #784448;
      }

      .cls-27 {
        fill: #453336;
      }

      .cls-28 {
        fill: #f2f6fa;
      }

      .cls-29 {
        fill: #4b3435;
      }

      .cls-30 {
        fill: #47393a;
      }

      .cls-31 {
        fill: #242222;
      }

      .cls-32 {
        fill: #744246;
      }

      .cls-33 {
        fill: #181b1b;
      }

      .cls-34 {
        fill: #9f5a5a;
      }

      .cls-35 {
        fill: #232323;
      }

      .cls-36 {
        fill: #1c1c1c;
      }

      .cls-37 {
        fill: #313333;
      }

      .cls-38 {
        fill: #7e4343;
      }

      .cls-39 {
        fill: #151a1a;
      }

      .cls-40 {
        fill: #5d3d3e;
      }

      .cls-41 {
        fill: #704546;
      }

      .cls-42 {
        fill: #372a2c;
      }

      .cls-43 {
        fill: #744648;
      }

      .cls-44 {
        fill: #161a1a;
      }

      .cls-45 {
        fill: #905555;
      }

      .cls-46 {
        fill: #3d2e30;
      }

      .cls-47 {
        fill: #1d1e1d;
      }

      .cls-48 {
        fill: #262524;
      }

      .cls-49 {
        fill: #333;
      }

      .cls-50 {
        fill: #794041;
      }

      .cls-51 {
        fill: #3c2b2d;
      }

      .cls-52 {
        fill: #2a2a2a;
      }

      .cls-53 {
        fill: #7c494a;
      }

      .cls-54 {
        fill: #272525;
      }

      .cls-55 {
        fill: #3b2e30;
      }

      .cls-56 {
        fill: #48131b;
      }

      .cls-57 {
        fill: #33292a;
      }

      .cls-58 {
        fill: #9a5858;
      }

      .cls-59 {
        fill: #32282a;
      }

      .cls-60 {
        fill: #523a39;
      }

      .cls-61 {
        fill: #7c4041;
      }

      .cls-62 {
        fill: #362a2b;
      }

      .cls-63 {
        fill: #393a3a;
      }

      .cls-64 {
        fill: #3d3032;
      }

      .cls-65 {
        fill: #1d1e1e;
      }

      .cls-66 {
        fill: #513638;
      }

      .cls-67 {
        fill: #794d4d;
      }

      .cls-68 {
        fill: #414141;
      }

      .cls-69 {
        fill: #844644;
      }

      .cls-70 {
        fill: #7c4a4b;
      }

      .cls-71 {
        fill: #4b3738;
      }

      .cls-72 {
        fill: #282929;
      }

      .cls-73 {
        fill: #925655;
      }

      .cls-74 {
        fill: #744145;
      }

      .cls-75 {
        fill: #5f3339;
      }

      .cls-76 {
        fill: #212121;
      }

      .cls-77 {
        fill: #2e2728;
      }

      .cls-78 {
        fill: #884547;
      }

      .cls-79 {
        fill: #afafaf;
      }

      .cls-80 {
        fill: #2c2c2c;
      }

      .cls-81 {
        fill: #935857;
      }

      .cls-82 {
        fill: #884c4d;
      }

      .cls-83 {
        fill: #c9c7c9;
      }

      .cls-84 {
        fill: #333233;
      }

      .cls-85 {
        fill: #282323;
      }

      .cls-86 {
        fill: #7b4242;
      }

      .cls-87 {
        fill: #261f22;
      }

      .cls-88 {
        fill: #282526;
      }

      .cls-89 {
        fill: #383838;
      }

      .cls-90 {
        fill: #272627;
      }

      .cls-91 {
        fill: #292929;
      }

      .cls-92 {
        fill: #7a4141;
      }

      .cls-93 {
        fill: #523737;
      }

      .cls-94 {
        fill: #191e1d;
      }

      .cls-95 {
        fill: #64353c;
      }

      .cls-96 {
        fill: #272625;
      }

      .cls-97 {
        fill: #4f4e4e;
      }

      .cls-98 {
        fill: #2d2d2e;
      }

      .cls-99 {
        fill: #383d3d;
      }

      .cls-100 {
        fill: #1f1f1f;
      }

      .cls-101 {
        fill: #1a1a1a;
      }

      .cls-102 {
        fill: #674142;
      }

      .cls-103 {
        fill: #433235;
      }

      .cls-104 {
        fill: #2f2527;
      }

      .cls-105 {
        fill: #8b504f;
      }

      .cls-106 {
        fill: #86504f;
      }

      .cls-107 {
        fill: #1d1f1d;
      }

      .cls-108 {
        fill: #443838;
      }

      .cls-109 {
        fill: #85504f;
      }

      .cls-110 {
        fill: #3d3e3d;
      }

      .cls-111 {
        fill: #706f70;
      }

      .cls-112 {
        fill: #404040;
      }

      .cls-113 {
        fill: #282525;
      }

      .cls-114 {
        fill: #794749;
      }

      .cls-115 {
        fill: #1e1e1e;
      }

      .cls-116 {
        fill: #68353d;
      }

      .cls-117 {
        fill: #4a1920;
      }

      .cls-118 {
        fill: #392a2a;
      }

      .cls-119 {
        fill: #e4ebf3;
      }

      .cls-120 {
        fill: #583137;
      }

      .cls-121 {
        fill: #8e5454;
      }

      .cls-122 {
        fill: #64343b;
      }

      .cls-123 {
        fill: #a65d5d;
      }

      .cls-124 {
        fill: #666665;
      }
    </style>
  </defs>
  <g id="Vrstva_1-2" data-name="Vrstva 1">
    <g>
      <rect class="cls-100" x="83.46" y="163.55" width="4.39" height="5.45"/>
      <rect class="cls-100" x="79.07" y="163.55" width="4.39" height="5.45"/>
      <rect class="cls-100" x="74.68" y="163.55" width="4.39" height="5.45"/>
      <rect class="cls-100" x="70.29" y="163.55" width="4.39" height="5.45"/>
      <rect class="cls-100" x="65.89" y="163.55" width="4.39" height="5.45"/>
      <rect class="cls-100" x="61.5" y="163.55" width="4.39" height="5.45"/>
      <rect class="cls-100" x="57.11" y="163.55" width="4.39" height="5.45"/>
      <rect class="cls-100" x="52.71" y="163.55" width="4.39" height="5.45"/>
      <rect class="cls-100" x="48.32" y="163.55" width="4.39" height="5.45"/>
      <rect class="cls-100" x="43.93" y="163.55" width="4.39" height="5.45"/>
      <rect class="cls-100" x="39.54" y="163.55" width="4.39" height="5.45"/>
      <rect class="cls-47" x="83.46" y="158.1" width="4.39" height="5.45"/>
      <rect class="cls-10" x="79.07" y="158.1" width="4.39" height="5.45"/>
      <rect class="cls-10" x="74.68" y="158.1" width="4.39" height="5.45"/>
      <rect class="cls-11" x="70.29" y="158.1" width="4.39" height="5.45"/>
      <rect class="cls-49" x="65.89" y="158.1" width="4.39" height="5.45"/>
      <rect class="cls-100" x="61.5" y="158.1" width="4.39" height="5.45"/>
      <rect class="cls-10" x="57.11" y="158.1" width="4.39" height="5.45"/>
      <rect class="cls-10" x="52.71" y="158.1" width="4.39" height="5.45"/>
      <rect class="cls-63" x="48.32" y="158.1" width="4.39" height="5.45"/>
      <rect class="cls-17" x="43.93" y="158.1" width="4.39" height="5.45"/>
      <rect class="cls-100" x="39.54" y="158.1" width="4.39" height="5.45"/>
      <rect class="cls-100" x="79.07" y="152.65" width="4.39" height="5.45"/>
      <rect class="cls-110" x="74.68" y="152.65" width="4.39" height="5.45"/>
      <rect class="cls-11" x="70.29" y="152.65" width="4.39" height="5.45"/>
      <rect class="cls-49" x="65.89" y="152.65" width="4.39" height="5.45"/>
      <rect class="cls-100" x="61.5" y="152.65" width="4.39" height="5.45"/>
      <rect class="cls-100" x="57.11" y="152.65" width="4.39" height="5.45"/>
      <rect class="cls-112" x="52.71" y="152.65" width="4.39" height="5.45"/>
      <rect class="cls-63" x="48.32" y="152.65" width="4.39" height="5.45"/>
      <rect class="cls-17" x="43.93" y="152.65" width="4.39" height="5.45"/>
      <rect class="cls-100" x="39.54" y="152.65" width="4.39" height="5.45"/>
      <rect class="cls-100" x="79.07" y="147.19" width="4.39" height="5.45"/>
      <rect class="cls-84" x="74.68" y="147.19" width="4.39" height="5.45"/>
      <rect class="cls-84" x="70.29" y="147.19" width="4.39" height="5.45"/>
      <rect class="cls-84" x="65.89" y="147.19" width="4.39" height="5.45"/>
      <rect class="cls-49" x="61.5" y="147.19" width="4.39" height="5.45"/>
      <rect class="cls-49" x="57.11" y="147.19" width="4.39" height="5.45"/>
      <rect class="cls-37" x="52.71" y="147.19" width="4.39" height="5.45"/>
      <rect class="cls-98" x="48.32" y="147.19" width="4.39" height="5.45"/>
      <rect class="cls-115" x="43.93" y="147.19" width="4.39" height="5.45"/>
      <rect class="cls-100" x="39.54" y="147.19" width="4.39" height="5.45"/>
      <rect class="cls-107" x="83.46" y="141.74" width="4.39" height="5.45"/>
      <rect class="cls-84" x="79.07" y="141.74" width="4.39" height="5.45"/>
      <rect class="cls-10" x="74.68" y="141.74" width="4.39" height="5.45"/>
      <rect class="cls-10" x="70.29" y="141.74" width="4.39" height="5.45"/>
      <rect class="cls-10" x="65.89" y="141.74" width="4.39" height="5.45"/>
      <rect class="cls-10" x="61.5" y="141.74" width="4.39" height="5.45"/>
      <rect class="cls-10" x="57.11" y="141.74" width="4.39" height="5.45"/>
      <rect class="cls-101" x="52.71" y="141.74" width="4.39" height="5.45"/>
      <rect class="cls-118" x="48.32" y="141.74" width="4.39" height="5.45"/>
      <rect class="cls-92" x="43.93" y="141.74" width="4.39" height="5.45"/>
      <rect class="cls-92" x="39.54" y="141.74" width="4.39" height="5.45"/>
      <rect class="cls-94" x="35.14" y="141.74" width="4.39" height="5.45"/>
      <rect class="cls-107" x="83.46" y="136.29" width="4.39" height="5.45"/>
      <rect class="cls-84" x="79.07" y="136.29" width="4.39" height="5.45"/>
      <rect class="cls-10" x="74.68" y="136.29" width="4.39" height="5.45"/>
      <rect class="cls-10" x="70.29" y="136.29" width="4.39" height="5.45"/>
      <rect class="cls-10" x="65.89" y="136.29" width="4.39" height="5.45"/>
      <rect class="cls-10" x="61.5" y="136.29" width="4.39" height="5.45"/>
      <rect class="cls-10" x="57.11" y="136.29" width="4.39" height="5.45"/>
      <rect class="cls-101" x="52.71" y="136.29" width="4.39" height="5.45"/>
      <rect class="cls-72" x="48.32" y="136.29" width="4.39" height="5.45"/>
      <rect class="cls-99" x="43.93" y="136.29" width="4.39" height="5.45"/>
      <rect class="cls-99" x="39.54" y="136.29" width="4.39" height="5.45"/>
      <rect class="cls-36" x="35.14" y="136.29" width="4.39" height="5.45"/>
      <rect class="cls-107" x="83.46" y="130.84" width="4.39" height="5.45"/>
      <rect class="cls-84" x="79.07" y="130.84" width="4.39" height="5.45"/>
      <rect class="cls-10" x="74.68" y="130.84" width="4.39" height="5.45"/>
      <rect class="cls-10" x="70.29" y="130.84" width="4.39" height="5.45"/>
      <rect class="cls-10" x="65.89" y="130.84" width="4.39" height="5.45"/>
      <rect class="cls-10" x="61.5" y="130.84" width="4.39" height="5.45"/>
      <rect class="cls-10" x="57.11" y="130.84" width="4.39" height="5.45"/>
      <rect class="cls-101" x="52.71" y="130.84" width="4.39" height="5.45"/>
      <rect class="cls-91" x="48.32" y="130.84" width="4.39" height="5.45"/>
      <rect class="cls-10" x="43.93" y="130.84" width="4.39" height="5.45"/>
      <rect class="cls-10" x="39.54" y="130.84" width="4.39" height="5.45"/>
      <rect class="cls-36" x="35.14" y="130.84" width="4.39" height="5.45"/>
      <rect class="cls-107" x="83.46" y="125.39" width="4.39" height="5.45"/>
      <rect class="cls-84" x="79.07" y="125.39" width="4.39" height="5.45"/>
      <rect class="cls-119" x="74.68" y="125.39" width="4.39" height="5.45"/>
      <rect class="cls-13" x="70.29" y="125.39" width="4.39" height="5.45"/>
      <rect class="cls-4" x="65.89" y="125.39" width="4.39" height="5.45"/>
      <rect class="cls-6" x="61.5" y="125.39" width="4.39" height="5.45"/>
      <rect class="cls-28" x="57.11" y="125.39" width="4.39" height="5.45"/>
      <rect class="cls-113" x="52.71" y="125.39" width="4.39" height="5.45"/>
      <rect class="cls-112" x="48.32" y="125.39" width="4.39" height="5.45"/>
      <rect class="cls-10" x="43.93" y="125.39" width="4.39" height="5.45"/>
      <rect class="cls-10" x="39.54" y="125.39" width="4.39" height="5.45"/>
      <rect class="cls-36" x="35.14" y="125.39" width="4.39" height="5.45"/>
      <rect class="cls-107" x="79.07" y="119.94" width="4.39" height="5.45"/>
      <rect class="cls-90" x="74.68" y="119.94" width="4.39" height="5.45"/>
      <rect class="cls-54" x="70.29" y="119.94" width="4.39" height="5.45"/>
      <rect class="cls-96" x="65.89" y="119.94" width="4.39" height="5.45"/>
      <rect class="cls-35" x="61.5" y="119.94" width="4.39" height="5.45"/>
      <rect class="cls-48" x="57.11" y="119.94" width="4.39" height="5.45"/>
      <rect class="cls-6" x="52.71" y="119.94" width="4.39" height="5.45"/>
      <rect class="cls-83" x="48.32" y="119.94" width="4.39" height="5.45"/>
      <rect class="cls-68" x="43.93" y="119.94" width="4.39" height="5.45"/>
      <rect class="cls-47" x="39.54" y="119.94" width="4.39" height="5.45"/>
      <rect class="cls-100" x="92.25" y="114.48" width="4.39" height="5.45"/>
      <rect class="cls-100" x="87.86" y="114.48" width="4.39" height="5.45"/>
      <rect class="cls-100" x="83.46" y="114.48" width="4.39" height="5.45"/>
      <rect class="cls-100" x="79.07" y="114.48" width="4.39" height="5.45"/>
      <rect class="cls-36" x="74.68" y="114.48" width="4.39" height="5.45"/>
      <rect class="cls-36" x="70.29" y="114.48" width="4.39" height="5.45"/>
      <rect class="cls-36" x="65.89" y="114.48" width="4.39" height="5.45"/>
      <rect class="cls-36" x="61.5" y="114.48" width="4.39" height="5.45"/>
      <rect class="cls-36" x="57.11" y="114.48" width="4.39" height="5.45"/>
      <rect class="cls-56" x="52.71" y="114.48" width="4.39" height="5.45"/>
      <rect class="cls-117" x="48.32" y="114.48" width="4.39" height="5.45"/>
      <rect class="cls-12" x="43.93" y="114.48" width="4.39" height="5.45"/>
      <rect class="cls-100" x="39.54" y="114.48" width="4.39" height="5.45"/>
      <rect class="cls-100" x="35.14" y="114.48" width="4.39" height="5.45"/>
      <rect class="cls-100" x="96.64" y="109.03" width="4.39" height="5.45"/>
      <rect class="cls-123" x="92.25" y="109.03" width="4.39" height="5.45"/>
      <rect class="cls-34" x="87.86" y="109.03" width="4.39" height="5.45"/>
      <rect class="cls-34" x="83.46" y="109.03" width="4.39" height="5.45"/>
      <rect class="cls-34" x="79.07" y="109.03" width="4.39" height="5.45"/>
      <rect class="cls-34" x="74.68" y="109.03" width="4.39" height="5.45"/>
      <rect class="cls-34" x="70.29" y="109.03" width="4.39" height="5.45"/>
      <rect class="cls-34" x="65.89" y="109.03" width="4.39" height="5.45"/>
      <rect class="cls-34" x="61.5" y="109.03" width="4.39" height="5.45"/>
      <rect class="cls-78" x="57.11" y="109.03" width="4.39" height="5.45"/>
      <rect class="cls-38" x="52.71" y="109.03" width="4.39" height="5.45"/>
      <rect class="cls-20" x="48.32" y="109.03" width="4.39" height="5.45"/>
      <rect class="cls-69" x="43.93" y="109.03" width="4.39" height="5.45"/>
      <rect class="cls-95" x="39.54" y="109.03" width="4.39" height="5.45"/>
      <rect class="cls-95" x="35.14" y="109.03" width="4.39" height="5.45"/>
      <rect class="cls-104" x="30.75" y="109.03" width="4.39" height="5.45"/>
      <rect class="cls-100" x="26.36" y="109.03" width="4.39" height="5.45"/>
      <rect class="cls-100" x="101.04" y="103.58" width="4.39" height="5.45"/>
      <rect class="cls-18" x="96.64" y="103.58" width="4.39" height="5.45"/>
      <rect class="cls-1" x="92.25" y="103.58" width="4.39" height="5.45"/>
      <rect class="cls-1" x="87.86" y="103.58" width="4.39" height="5.45"/>
      <rect class="cls-1" x="83.46" y="103.58" width="4.39" height="5.45"/>
      <rect class="cls-1" x="79.07" y="103.58" width="4.39" height="5.45"/>
      <rect class="cls-1" x="74.68" y="103.58" width="4.39" height="5.45"/>
      <rect class="cls-1" x="70.29" y="103.58" width="4.39" height="5.45"/>
      <rect class="cls-1" x="65.89" y="103.58" width="4.39" height="5.45"/>
      <rect class="cls-1" x="61.5" y="103.58" width="4.39" height="5.45"/>
      <rect class="cls-45" x="57.11" y="103.58" width="4.39" height="5.45"/>
      <rect class="cls-45" x="52.71" y="103.58" width="4.39" height="5.45"/>
      <rect class="cls-45" x="48.32" y="103.58" width="4.39" height="5.45"/>
      <rect class="cls-81" x="43.93" y="103.58" width="4.39" height="5.45"/>
      <rect class="cls-86" x="39.54" y="103.58" width="4.39" height="5.45"/>
      <rect class="cls-120" x="35.14" y="103.58" width="4.39" height="5.45"/>
      <rect class="cls-75" x="30.75" y="103.58" width="4.39" height="5.45"/>
      <rect class="cls-116" x="26.36" y="103.58" width="4.39" height="5.45"/>
      <rect class="cls-100" x="21.96" y="103.58" width="4.39" height="5.45"/>
      <rect class="cls-100" x="101.04" y="98.13" width="4.39" height="5.45"/>
      <rect class="cls-2" x="96.64" y="98.13" width="4.39" height="5.45"/>
      <rect class="cls-1" x="92.25" y="98.13" width="4.39" height="5.45"/>
      <rect class="cls-105" x="87.86" y="98.13" width="4.39" height="5.45"/>
      <rect class="cls-50" x="83.46" y="98.13" width="4.39" height="5.45"/>
      <rect class="cls-50" x="79.07" y="98.13" width="4.39" height="5.45"/>
      <rect class="cls-50" x="74.68" y="98.13" width="4.39" height="5.45"/>
      <rect class="cls-82" x="70.29" y="98.13" width="4.39" height="5.45"/>
      <rect class="cls-1" x="65.89" y="98.13" width="4.39" height="5.45"/>
      <rect class="cls-1" x="61.5" y="98.13" width="4.39" height="5.45"/>
      <rect class="cls-1" x="57.11" y="98.13" width="4.39" height="5.45"/>
      <rect class="cls-1" x="52.71" y="98.13" width="4.39" height="5.45"/>
      <rect class="cls-1" x="48.32" y="98.13" width="4.39" height="5.45"/>
      <rect class="cls-1" x="43.93" y="98.13" width="4.39" height="5.45"/>
      <rect class="cls-73" x="39.54" y="98.13" width="4.39" height="5.45"/>
      <rect class="cls-61" x="35.14" y="98.13" width="4.39" height="5.45"/>
      <rect class="cls-14" x="30.75" y="98.13" width="4.39" height="5.45"/>
      <rect class="cls-122" x="26.36" y="98.13" width="4.39" height="5.45"/>
      <rect class="cls-100" x="21.96" y="98.13" width="4.39" height="5.45"/>
      <rect class="cls-100" x="101.04" y="92.68" width="4.39" height="5.45"/>
      <rect class="cls-2" x="96.64" y="92.68" width="4.39" height="5.45"/>
      <rect class="cls-1" x="92.25" y="92.68" width="4.39" height="5.45"/>
      <rect class="cls-67" x="87.86" y="92.68" width="4.39" height="5.45"/>
      <rect class="cls-3" x="83.46" y="92.68" width="4.39" height="5.45"/>
      <rect class="cls-3" x="79.07" y="92.68" width="4.39" height="5.45"/>
      <rect class="cls-3" x="74.68" y="92.68" width="4.39" height="5.45"/>
      <rect class="cls-41" x="70.29" y="92.68" width="4.39" height="5.45"/>
      <rect class="cls-1" x="65.89" y="92.68" width="4.39" height="5.45"/>
      <rect class="cls-1" x="61.5" y="92.68" width="4.39" height="5.45"/>
      <rect class="cls-1" x="57.11" y="92.68" width="4.39" height="5.45"/>
      <rect class="cls-1" x="52.71" y="92.68" width="4.39" height="5.45"/>
      <rect class="cls-1" x="48.32" y="92.68" width="4.39" height="5.45"/>
      <rect class="cls-1" x="43.93" y="92.68" width="4.39" height="5.45"/>
      <rect class="cls-1" x="39.54" y="92.68" width="4.39" height="5.45"/>
      <rect class="cls-44" x="35.14" y="92.68" width="4.39" height="5.45"/>
      <rect class="cls-16" x="30.75" y="92.68" width="4.39" height="5.45"/>
      <rect class="cls-122" x="26.36" y="92.68" width="4.39" height="5.45"/>
      <rect class="cls-100" x="21.96" y="92.68" width="4.39" height="5.45"/>
      <rect class="cls-100" x="101.04" y="87.23" width="4.39" height="5.45"/>
      <rect class="cls-2" x="96.64" y="87.23" width="4.39" height="5.45"/>
      <rect class="cls-1" x="92.25" y="87.23" width="4.39" height="5.45"/>
      <rect class="cls-121" x="87.86" y="87.23" width="4.39" height="5.45"/>
      <rect class="cls-109" x="83.46" y="87.23" width="4.39" height="5.45"/>
      <rect class="cls-106" x="79.07" y="87.23" width="4.39" height="5.45"/>
      <rect class="cls-106" x="74.68" y="87.23" width="4.39" height="5.45"/>
      <rect class="cls-8" x="70.29" y="87.23" width="4.39" height="5.45"/>
      <rect class="cls-1" x="65.89" y="87.23" width="4.39" height="5.45"/>
      <rect class="cls-1" x="61.5" y="87.23" width="4.39" height="5.45"/>
      <rect class="cls-1" x="57.11" y="87.23" width="4.39" height="5.45"/>
      <rect class="cls-1" x="52.71" y="87.23" width="4.39" height="5.45"/>
      <rect class="cls-1" x="48.32" y="87.23" width="4.39" height="5.45"/>
      <rect class="cls-1" x="43.93" y="87.23" width="4.39" height="5.45"/>
      <rect class="cls-1" x="39.54" y="87.23" width="4.39" height="5.45"/>
      <rect class="cls-39" x="35.14" y="87.23" width="4.39" height="5.45"/>
      <rect class="cls-31" x="30.75" y="87.23" width="4.39" height="5.45"/>
      <rect class="cls-85" x="26.36" y="87.23" width="4.39" height="5.45"/>
      <rect class="cls-100" x="21.96" y="87.23" width="4.39" height="5.45"/>
      <rect class="cls-9" x="17.57" y="87.23" width="4.39" height="5.45"/>
      <rect class="cls-9" x="13.18" y="87.23" width="4.39" height="5.45"/>
      <rect class="cls-100" x="101.04" y="81.77" width="4.39" height="5.45"/>
      <rect class="cls-2" x="96.64" y="81.77" width="4.39" height="5.45"/>
      <rect class="cls-1" x="92.25" y="81.77" width="4.39" height="5.45"/>
      <rect class="cls-1" x="87.86" y="81.77" width="4.39" height="5.45"/>
      <rect class="cls-1" x="83.46" y="81.77" width="4.39" height="5.45"/>
      <rect class="cls-1" x="79.07" y="81.77" width="4.39" height="5.45"/>
      <rect class="cls-1" x="74.68" y="81.77" width="4.39" height="5.45"/>
      <rect class="cls-1" x="70.29" y="81.77" width="4.39" height="5.45"/>
      <rect class="cls-1" x="65.89" y="81.77" width="4.39" height="5.45"/>
      <rect class="cls-1" x="61.5" y="81.77" width="4.39" height="5.45"/>
      <rect class="cls-1" x="57.11" y="81.77" width="4.39" height="5.45"/>
      <rect class="cls-87" x="52.71" y="81.77" width="4.39" height="5.45"/>
      <rect class="cls-29" x="48.32" y="81.77" width="4.39" height="5.45"/>
      <rect class="cls-1" x="43.93" y="81.77" width="4.39" height="5.45"/>
      <rect class="cls-1" x="39.54" y="81.77" width="4.39" height="5.45"/>
      <rect class="cls-70" x="35.14" y="81.77" width="4.39" height="5.45"/>
      <rect class="cls-57" x="30.75" y="81.77" width="4.39" height="5.45"/>
      <rect class="cls-100" x="26.36" y="81.77" width="4.39" height="5.45"/>
      <rect class="cls-100" x="21.96" y="81.77" width="4.39" height="5.45"/>
      <rect class="cls-100" x="17.57" y="81.77" width="4.39" height="5.45"/>
      <rect class="cls-100" x="13.18" y="81.77" width="4.39" height="5.45"/>
      <rect class="cls-100" x="101.04" y="76.32" width="4.39" height="5.45"/>
      <rect class="cls-26" x="96.64" y="76.32" width="4.39" height="5.45"/>
      <rect class="cls-60" x="92.25" y="76.32" width="4.39" height="5.45"/>
      <rect class="cls-40" x="87.86" y="76.32" width="4.39" height="5.45"/>
      <rect class="cls-74" x="83.46" y="76.32" width="4.39" height="5.45"/>
      <rect class="cls-1" x="79.07" y="76.32" width="4.39" height="5.45"/>
      <rect class="cls-32" x="74.68" y="76.32" width="4.39" height="5.45"/>
      <rect class="cls-7" x="70.29" y="76.32" width="4.39" height="5.45"/>
      <rect class="cls-15" x="65.89" y="76.32" width="4.39" height="5.45"/>
      <rect class="cls-23" x="61.5" y="76.32" width="4.39" height="5.45"/>
      <rect class="cls-1" x="57.11" y="76.32" width="4.39" height="5.45"/>
      <rect class="cls-71" x="52.71" y="76.32" width="4.39" height="5.45"/>
      <rect class="cls-102" x="48.32" y="76.32" width="4.39" height="5.45"/>
      <rect class="cls-1" x="43.93" y="76.32" width="4.39" height="5.45"/>
      <rect class="cls-1" x="39.54" y="76.32" width="4.39" height="5.45"/>
      <rect class="cls-1" x="35.14" y="76.32" width="4.39" height="5.45"/>
      <rect class="cls-62" x="30.75" y="76.32" width="4.39" height="5.45"/>
      <rect class="cls-100" x="26.36" y="76.32" width="4.39" height="5.45"/>
      <rect class="cls-100" x="21.96" y="76.32" width="4.39" height="5.45"/>
      <rect class="cls-100" x="17.57" y="76.32" width="4.39" height="5.45"/>
      <rect class="cls-100" x="13.18" y="76.32" width="4.39" height="5.45"/>
      <rect class="cls-9" x="8.79" y="76.32" width="4.39" height="5.45"/>
      <rect class="cls-100" x="101.04" y="70.87" width="4.39" height="5.45"/>
      <rect class="cls-19" x="96.64" y="70.87" width="4.39" height="5.45"/>
      <rect class="cls-65" x="92.25" y="70.87" width="4.39" height="5.45"/>
      <rect class="cls-88" x="87.86" y="70.87" width="4.39" height="5.45"/>
      <rect class="cls-103" x="83.46" y="70.87" width="4.39" height="5.45"/>
      <rect class="cls-1" x="79.07" y="70.87" width="4.39" height="5.45"/>
      <rect class="cls-27" x="74.68" y="70.87" width="4.39" height="5.45"/>
      <rect class="cls-77" x="70.29" y="70.87" width="4.39" height="5.45"/>
      <rect class="cls-24" x="65.89" y="70.87" width="4.39" height="5.45"/>
      <rect class="cls-51" x="61.5" y="70.87" width="4.39" height="5.45"/>
      <rect class="cls-93" x="57.11" y="70.87" width="4.39" height="5.45"/>
      <rect class="cls-93" x="52.71" y="70.87" width="4.39" height="5.45"/>
      <rect class="cls-22" x="48.32" y="70.87" width="4.39" height="5.45"/>
      <rect class="cls-1" x="43.93" y="70.87" width="4.39" height="5.45"/>
      <rect class="cls-1" x="39.54" y="70.87" width="4.39" height="5.45"/>
      <rect class="cls-1" x="35.14" y="70.87" width="4.39" height="5.45"/>
      <rect class="cls-62" x="30.75" y="70.87" width="4.39" height="5.45"/>
      <rect class="cls-100" x="26.36" y="70.87" width="4.39" height="5.45"/>
      <rect class="cls-100" x="21.96" y="70.87" width="4.39" height="5.45"/>
      <rect class="cls-100" x="17.57" y="70.87" width="4.39" height="5.45"/>
      <rect class="cls-100" x="13.18" y="70.87" width="4.39" height="5.45"/>
      <rect class="cls-9" x="8.79" y="70.87" width="4.39" height="5.45"/>
      <rect class="cls-100" x="114.21" y="65.42" width="4.39" height="5.45"/>
      <rect class="cls-100" x="101.04" y="65.42" width="4.39" height="5.45"/>
      <rect class="cls-42" x="96.64" y="65.42" width="4.39" height="5.45"/>
      <rect class="cls-62" x="92.25" y="65.42" width="4.39" height="5.45"/>
      <rect class="cls-55" x="87.86" y="65.42" width="4.39" height="5.45"/>
      <rect class="cls-108" x="83.46" y="65.42" width="4.39" height="5.45"/>
      <rect class="cls-1" x="79.07" y="65.42" width="4.39" height="5.45"/>
      <rect class="cls-30" x="74.68" y="65.42" width="4.39" height="5.45"/>
      <rect class="cls-64" x="70.29" y="65.42" width="4.39" height="5.45"/>
      <rect class="cls-62" x="65.89" y="65.42" width="4.39" height="5.45"/>
      <rect class="cls-62" x="61.5" y="65.42" width="4.39" height="5.45"/>
      <rect class="cls-62" x="57.11" y="65.42" width="4.39" height="5.45"/>
      <rect class="cls-62" x="52.71" y="65.42" width="4.39" height="5.45"/>
      <rect class="cls-66" x="48.32" y="65.42" width="4.39" height="5.45"/>
      <rect class="cls-1" x="43.93" y="65.42" width="4.39" height="5.45"/>
      <rect class="cls-1" x="39.54" y="65.42" width="4.39" height="5.45"/>
      <rect class="cls-21" x="35.14" y="65.42" width="4.39" height="5.45"/>
      <rect class="cls-59" x="30.75" y="65.42" width="4.39" height="5.45"/>
      <rect class="cls-100" x="26.36" y="65.42" width="4.39" height="5.45"/>
      <rect class="cls-100" x="21.96" y="65.42" width="4.39" height="5.45"/>
      <rect class="cls-100" x="17.57" y="65.42" width="4.39" height="5.45"/>
      <rect class="cls-100" x="13.18" y="65.42" width="4.39" height="5.45"/>
      <rect class="cls-112" x="8.79" y="65.42" width="4.39" height="5.45"/>
      <rect class="cls-100" x="114.21" y="59.97" width="4.39" height="5.45"/>
      <rect class="cls-100" x="109.82" y="59.97" width="4.39" height="5.45"/>
      <rect class="cls-100" x="105.43" y="59.97" width="4.39" height="5.45"/>
      <rect class="cls-100" x="101.04" y="59.97" width="4.39" height="5.45"/>
      <rect class="cls-53" x="96.64" y="59.97" width="4.39" height="5.45"/>
      <rect class="cls-114" x="92.25" y="59.97" width="4.39" height="5.45"/>
      <rect class="cls-25" x="87.86" y="59.97" width="4.39" height="5.45"/>
      <rect class="cls-1" x="83.46" y="59.97" width="4.39" height="5.45"/>
      <rect class="cls-1" x="79.07" y="59.97" width="4.39" height="5.45"/>
      <rect class="cls-1" x="74.68" y="59.97" width="4.39" height="5.45"/>
      <rect class="cls-1" x="70.29" y="59.97" width="4.39" height="5.45"/>
      <rect class="cls-1" x="65.89" y="59.97" width="4.39" height="5.45"/>
      <rect class="cls-1" x="61.5" y="59.97" width="4.39" height="5.45"/>
      <rect class="cls-1" x="57.11" y="59.97" width="4.39" height="5.45"/>
      <rect class="cls-43" x="52.71" y="59.97" width="4.39" height="5.45"/>
      <rect class="cls-114" x="48.32" y="59.97" width="4.39" height="5.45"/>
      <rect class="cls-114" x="43.93" y="59.97" width="4.39" height="5.45"/>
      <rect class="cls-114" x="39.54" y="59.97" width="4.39" height="5.45"/>
      <rect class="cls-33" x="35.14" y="59.97" width="4.39" height="5.45"/>
      <rect class="cls-100" x="30.75" y="59.97" width="4.39" height="5.45"/>
      <rect class="cls-100" x="26.36" y="59.97" width="4.39" height="5.45"/>
      <rect class="cls-100" x="21.96" y="59.97" width="4.39" height="5.45"/>
      <rect class="cls-100" x="17.57" y="59.97" width="4.39" height="5.45"/>
      <rect class="cls-100" x="13.18" y="59.97" width="4.39" height="5.45"/>
      <rect class="cls-100" x="8.79" y="59.97" width="4.39" height="5.45"/>
      <rect class="cls-100" x="4.39" y="59.97" width="4.39" height="5.45"/>
      <rect class="cls-100" x="114.21" y="54.52" width="4.39" height="5.45"/>
      <rect class="cls-100" x="109.82" y="54.52" width="4.39" height="5.45"/>
      <rect class="cls-100" x="105.43" y="54.52" width="4.39" height="5.45"/>
      <rect class="cls-100" x="101.04" y="54.52" width="4.39" height="5.45"/>
      <rect class="cls-100" x="96.64" y="54.52" width="4.39" height="5.45"/>
      <rect class="cls-100" x="92.25" y="54.52" width="4.39" height="5.45"/>
      <rect class="cls-46" x="87.86" y="54.52" width="4.39" height="5.45"/>
      <rect class="cls-58" x="83.46" y="54.52" width="4.39" height="5.45"/>
      <rect class="cls-58" x="79.07" y="54.52" width="4.39" height="5.45"/>
      <rect class="cls-58" x="74.68" y="54.52" width="4.39" height="5.45"/>
      <rect class="cls-58" x="70.29" y="54.52" width="4.39" height="5.45"/>
      <rect class="cls-58" x="65.89" y="54.52" width="4.39" height="5.45"/>
      <rect class="cls-58" x="61.5" y="54.52" width="4.39" height="5.45"/>
      <rect class="cls-58" x="57.11" y="54.52" width="4.39" height="5.45"/>
      <rect class="cls-5" x="52.71" y="54.52" width="4.39" height="5.45"/>
      <rect class="cls-100" x="48.32" y="54.52" width="4.39" height="5.45"/>
      <rect class="cls-100" x="43.93" y="54.52" width="4.39" height="5.45"/>
      <rect class="cls-100" x="39.54" y="54.52" width="4.39" height="5.45"/>
      <rect class="cls-100" x="35.14" y="54.52" width="4.39" height="5.45"/>
      <rect class="cls-100" x="30.75" y="54.52" width="4.39" height="5.45"/>
      <rect class="cls-100" x="26.36" y="54.52" width="4.39" height="5.45"/>
      <rect class="cls-100" x="21.96" y="54.52" width="4.39" height="5.45"/>
      <rect class="cls-100" x="17.57" y="54.52" width="4.39" height="5.45"/>
      <rect class="cls-100" x="13.18" y="54.52" width="4.39" height="5.45"/>
      <rect class="cls-100" x="8.79" y="54.52" width="4.39" height="5.45"/>
      <rect class="cls-100" x="4.39" y="54.52" width="4.39" height="5.45"/>
      <rect class="cls-100" x="114.21" y="49.06" width="4.39" height="5.45"/>
      <rect class="cls-100" x="109.82" y="49.06" width="4.39" height="5.45"/>
      <rect class="cls-100" x="105.43" y="49.06" width="4.39" height="5.45"/>
      <rect class="cls-100" x="101.04" y="49.06" width="4.39" height="5.45"/>
      <rect class="cls-100" x="96.64" y="49.06" width="4.39" height="5.45"/>
      <rect class="cls-100" x="92.25" y="49.06" width="4.39" height="5.45"/>
      <rect class="cls-100" x="87.86" y="49.06" width="4.39" height="5.45"/>
      <rect class="cls-100" x="83.46" y="49.06" width="4.39" height="5.45"/>
      <rect class="cls-100" x="79.07" y="49.06" width="4.39" height="5.45"/>
      <rect class="cls-100" x="74.68" y="49.06" width="4.39" height="5.45"/>
      <rect class="cls-100" x="70.29" y="49.06" width="4.39" height="5.45"/>
      <rect class="cls-100" x="65.89" y="49.06" width="4.39" height="5.45"/>
      <rect class="cls-100" x="61.5" y="49.06" width="4.39" height="5.45"/>
      <rect class="cls-100" x="57.11" y="49.06" width="4.39" height="5.45"/>
      <rect class="cls-100" x="52.71" y="49.06" width="4.39" height="5.45"/>
      <rect class="cls-100" x="48.32" y="49.06" width="4.39" height="5.45"/>
      <rect class="cls-100" x="43.93" y="49.06" width="4.39" height="5.45"/>
      <rect class="cls-100" x="39.54" y="49.06" width="4.39" height="5.45"/>
      <rect class="cls-100" x="35.14" y="49.06" width="4.39" height="5.45"/>
      <rect class="cls-100" x="30.75" y="49.06" width="4.39" height="5.45"/>
      <rect class="cls-100" x="26.36" y="49.06" width="4.39" height="5.45"/>
      <rect class="cls-100" x="21.96" y="49.06" width="4.39" height="5.45"/>
      <rect class="cls-100" x="17.57" y="49.06" width="4.39" height="5.45"/>
      <rect class="cls-100" x="13.18" y="49.06" width="4.39" height="5.45"/>
      <rect class="cls-100" x="8.79" y="49.06" width="4.39" height="5.45"/>
      <rect class="cls-76" x="4.39" y="49.06" width="4.39" height="5.45"/>
      <rect class="cls-100" x="114.21" y="43.61" width="4.39" height="5.45"/>
      <rect class="cls-100" x="109.82" y="43.61" width="4.39" height="5.45"/>
      <rect class="cls-100" x="105.43" y="43.61" width="4.39" height="5.45"/>
      <rect class="cls-100" x="101.04" y="43.61" width="4.39" height="5.45"/>
      <rect class="cls-100" x="96.64" y="43.61" width="4.39" height="5.45"/>
      <rect class="cls-100" x="92.25" y="43.61" width="4.39" height="5.45"/>
      <rect class="cls-100" x="87.86" y="43.61" width="4.39" height="5.45"/>
      <rect class="cls-100" x="83.46" y="43.61" width="4.39" height="5.45"/>
      <rect class="cls-100" x="79.07" y="43.61" width="4.39" height="5.45"/>
      <rect class="cls-100" x="74.68" y="43.61" width="4.39" height="5.45"/>
      <rect class="cls-100" x="70.29" y="43.61" width="4.39" height="5.45"/>
      <rect class="cls-100" x="65.89" y="43.61" width="4.39" height="5.45"/>
      <rect class="cls-100" x="61.5" y="43.61" width="4.39" height="5.45"/>
      <rect class="cls-100" x="57.11" y="43.61" width="4.39" height="5.45"/>
      <rect class="cls-100" x="52.71" y="43.61" width="4.39" height="5.45"/>
      <rect class="cls-100" x="48.32" y="43.61" width="4.39" height="5.45"/>
      <rect class="cls-100" x="43.93" y="43.61" width="4.39" height="5.45"/>
      <rect class="cls-100" x="39.54" y="43.61" width="4.39" height="5.45"/>
      <rect class="cls-100" x="35.14" y="43.61" width="4.39" height="5.45"/>
      <rect class="cls-100" x="30.75" y="43.61" width="4.39" height="5.45"/>
      <rect class="cls-100" x="26.36" y="43.61" width="4.39" height="5.45"/>
      <rect class="cls-100" x="21.96" y="43.61" width="4.39" height="5.45"/>
      <rect class="cls-100" x="17.57" y="43.61" width="4.39" height="5.45"/>
      <rect class="cls-100" x="13.18" y="43.61" width="4.39" height="5.45"/>
      <rect class="cls-97" x="8.79" y="43.61" width="4.39" height="5.45"/>
      <rect class="cls-100" y="43.61" width="4.39" height="5.45"/>
      <rect class="cls-52" x="109.82" y="38.16" width="4.39" height="5.45"/>
      <rect class="cls-100" x="105.43" y="38.16" width="4.39" height="5.45"/>
      <rect class="cls-100" x="101.04" y="38.16" width="4.39" height="5.45"/>
      <rect class="cls-100" x="96.64" y="38.16" width="4.39" height="5.45"/>
      <rect class="cls-100" x="92.25" y="38.16" width="4.39" height="5.45"/>
      <rect class="cls-100" x="87.86" y="38.16" width="4.39" height="5.45"/>
      <rect class="cls-100" x="83.46" y="38.16" width="4.39" height="5.45"/>
      <rect class="cls-100" x="79.07" y="38.16" width="4.39" height="5.45"/>
      <rect class="cls-100" x="74.68" y="38.16" width="4.39" height="5.45"/>
      <rect class="cls-100" x="70.29" y="38.16" width="4.39" height="5.45"/>
      <rect class="cls-100" x="65.89" y="38.16" width="4.39" height="5.45"/>
      <rect class="cls-100" x="61.5" y="38.16" width="4.39" height="5.45"/>
      <rect class="cls-100" x="57.11" y="38.16" width="4.39" height="5.45"/>
      <rect class="cls-100" x="52.71" y="38.16" width="4.39" height="5.45"/>
      <rect class="cls-100" x="48.32" y="38.16" width="4.39" height="5.45"/>
      <rect class="cls-100" x="43.93" y="38.16" width="4.39" height="5.45"/>
      <rect class="cls-100" x="39.54" y="38.16" width="4.39" height="5.45"/>
      <rect class="cls-100" x="35.14" y="38.16" width="4.39" height="5.45"/>
      <rect class="cls-100" x="30.75" y="38.16" width="4.39" height="5.45"/>
      <rect class="cls-100" x="26.36" y="38.16" width="4.39" height="5.45"/>
      <rect class="cls-100" x="21.96" y="38.16" width="4.39" height="5.45"/>
      <rect class="cls-100" x="17.57" y="38.16" width="4.39" height="5.45"/>
      <rect class="cls-100" x="13.18" y="38.16" width="4.39" height="5.45"/>
      <rect class="cls-100" x="8.79" y="38.16" width="4.39" height="5.45"/>
      <rect class="cls-100" x="4.39" y="38.16" width="4.39" height="5.45"/>
      <rect class="cls-52" x="109.82" y="32.71" width="4.39" height="5.45"/>
      <rect class="cls-100" x="105.43" y="32.71" width="4.39" height="5.45"/>
      <rect class="cls-100" x="101.04" y="32.71" width="4.39" height="5.45"/>
      <rect class="cls-100" x="96.64" y="32.71" width="4.39" height="5.45"/>
      <rect class="cls-100" x="92.25" y="32.71" width="4.39" height="5.45"/>
      <rect class="cls-100" x="87.86" y="32.71" width="4.39" height="5.45"/>
      <rect class="cls-100" x="83.46" y="32.71" width="4.39" height="5.45"/>
      <rect class="cls-100" x="79.07" y="32.71" width="4.39" height="5.45"/>
      <rect class="cls-100" x="74.68" y="32.71" width="4.39" height="5.45"/>
      <rect class="cls-100" x="70.29" y="32.71" width="4.39" height="5.45"/>
      <rect class="cls-100" x="65.89" y="32.71" width="4.39" height="5.45"/>
      <rect class="cls-100" x="61.5" y="32.71" width="4.39" height="5.45"/>
      <rect class="cls-100" x="57.11" y="32.71" width="4.39" height="5.45"/>
      <rect class="cls-100" x="52.71" y="32.71" width="4.39" height="5.45"/>
      <rect class="cls-100" x="48.32" y="32.71" width="4.39" height="5.45"/>
      <rect class="cls-100" x="43.93" y="32.71" width="4.39" height="5.45"/>
      <rect class="cls-100" x="39.54" y="32.71" width="4.39" height="5.45"/>
      <rect class="cls-100" x="35.14" y="32.71" width="4.39" height="5.45"/>
      <rect class="cls-100" x="30.75" y="32.71" width="4.39" height="5.45"/>
      <rect class="cls-100" x="26.36" y="32.71" width="4.39" height="5.45"/>
      <rect class="cls-100" x="21.96" y="32.71" width="4.39" height="5.45"/>
      <rect class="cls-100" x="17.57" y="32.71" width="4.39" height="5.45"/>
      <rect class="cls-100" x="13.18" y="32.71" width="4.39" height="5.45"/>
      <rect class="cls-100" x="8.79" y="32.71" width="4.39" height="5.45"/>
      <rect class="cls-100" x="4.39" y="32.71" width="4.39" height="5.45"/>
      <rect class="cls-80" x="109.82" y="27.26" width="4.39" height="5.45"/>
      <rect class="cls-100" x="105.43" y="27.26" width="4.39" height="5.45"/>
      <rect class="cls-100" x="101.04" y="27.26" width="4.39" height="5.45"/>
      <rect class="cls-100" x="96.64" y="27.26" width="4.39" height="5.45"/>
      <rect class="cls-100" x="92.25" y="27.26" width="4.39" height="5.45"/>
      <rect class="cls-100" x="87.86" y="27.26" width="4.39" height="5.45"/>
      <rect class="cls-100" x="83.46" y="27.26" width="4.39" height="5.45"/>
      <rect class="cls-100" x="79.07" y="27.26" width="4.39" height="5.45"/>
      <rect class="cls-100" x="74.68" y="27.26" width="4.39" height="5.45"/>
      <rect class="cls-100" x="70.29" y="27.26" width="4.39" height="5.45"/>
      <rect class="cls-100" x="65.89" y="27.26" width="4.39" height="5.45"/>
      <rect class="cls-100" x="61.5" y="27.26" width="4.39" height="5.45"/>
      <rect class="cls-100" x="57.11" y="27.26" width="4.39" height="5.45"/>
      <rect class="cls-100" x="52.71" y="27.26" width="4.39" height="5.45"/>
      <rect class="cls-100" x="48.32" y="27.26" width="4.39" height="5.45"/>
      <rect class="cls-100" x="43.93" y="27.26" width="4.39" height="5.45"/>
      <rect class="cls-100" x="39.54" y="27.26" width="4.39" height="5.45"/>
      <rect class="cls-100" x="35.14" y="27.26" width="4.39" height="5.45"/>
      <rect class="cls-100" x="30.75" y="27.26" width="4.39" height="5.45"/>
      <rect class="cls-100" x="26.36" y="27.26" width="4.39" height="5.45"/>
      <rect class="cls-100" x="21.96" y="27.26" width="4.39" height="5.45"/>
      <rect class="cls-100" x="17.57" y="27.26" width="4.39" height="5.45"/>
      <rect class="cls-100" x="13.18" y="27.26" width="4.39" height="5.45"/>
      <rect class="cls-9" x="8.79" y="27.26" width="4.39" height="5.45"/>
      <rect class="cls-100" x="114.21" y="21.81" width="4.39" height="5.45"/>
      <rect class="cls-100" x="109.82" y="21.81" width="4.39" height="5.45"/>
      <rect class="cls-100" x="105.43" y="21.81" width="4.39" height="5.45"/>
      <rect class="cls-100" x="101.04" y="21.81" width="4.39" height="5.45"/>
      <rect class="cls-100" x="96.64" y="21.81" width="4.39" height="5.45"/>
      <rect class="cls-100" x="92.25" y="21.81" width="4.39" height="5.45"/>
      <rect class="cls-100" x="87.86" y="21.81" width="4.39" height="5.45"/>
      <rect class="cls-100" x="83.46" y="21.81" width="4.39" height="5.45"/>
      <rect class="cls-100" x="79.07" y="21.81" width="4.39" height="5.45"/>
      <rect class="cls-100" x="74.68" y="21.81" width="4.39" height="5.45"/>
      <rect class="cls-100" x="70.29" y="21.81" width="4.39" height="5.45"/>
      <rect class="cls-100" x="65.89" y="21.81" width="4.39" height="5.45"/>
      <rect class="cls-100" x="61.5" y="21.81" width="4.39" height="5.45"/>
      <rect class="cls-100" x="57.11" y="21.81" width="4.39" height="5.45"/>
      <rect class="cls-100" x="52.71" y="21.81" width="4.39" height="5.45"/>
      <rect class="cls-100" x="48.32" y="21.81" width="4.39" height="5.45"/>
      <rect class="cls-100" x="43.93" y="21.81" width="4.39" height="5.45"/>
      <rect class="cls-100" x="39.54" y="21.81" width="4.39" height="5.45"/>
      <rect class="cls-100" x="35.14" y="21.81" width="4.39" height="5.45"/>
      <rect class="cls-100" x="30.75" y="21.81" width="4.39" height="5.45"/>
      <rect class="cls-100" x="26.36" y="21.81" width="4.39" height="5.45"/>
      <rect class="cls-100" x="21.96" y="21.81" width="4.39" height="5.45"/>
      <rect class="cls-100" x="17.57" y="21.81" width="4.39" height="5.45"/>
      <rect class="cls-100" x="13.18" y="21.81" width="4.39" height="5.45"/>
      <rect class="cls-9" x="8.79" y="21.81" width="4.39" height="5.45"/>
      <rect class="cls-52" x="109.82" y="16.35" width="4.39" height="5.45"/>
      <rect class="cls-100" x="105.43" y="16.35" width="4.39" height="5.45"/>
      <rect class="cls-100" x="101.04" y="16.35" width="4.39" height="5.45"/>
      <rect class="cls-100" x="92.25" y="16.35" width="4.39" height="5.45"/>
      <rect class="cls-100" x="87.86" y="16.35" width="4.39" height="5.45"/>
      <rect class="cls-100" x="83.46" y="16.35" width="4.39" height="5.45"/>
      <rect class="cls-100" x="79.07" y="16.35" width="4.39" height="5.45"/>
      <rect class="cls-100" x="74.68" y="16.35" width="4.39" height="5.45"/>
      <rect class="cls-100" x="70.29" y="16.35" width="4.39" height="5.45"/>
      <rect class="cls-100" x="65.89" y="16.35" width="4.39" height="5.45"/>
      <rect class="cls-100" x="61.5" y="16.35" width="4.39" height="5.45"/>
      <rect class="cls-100" x="57.11" y="16.35" width="4.39" height="5.45"/>
      <rect class="cls-100" x="52.71" y="16.35" width="4.39" height="5.45"/>
      <rect class="cls-100" x="48.32" y="16.35" width="4.39" height="5.45"/>
      <rect class="cls-100" x="43.93" y="16.35" width="4.39" height="5.45"/>
      <rect class="cls-100" x="39.54" y="16.35" width="4.39" height="5.45"/>
      <rect class="cls-100" x="35.14" y="16.35" width="4.39" height="5.45"/>
      <rect class="cls-100" x="21.96" y="16.35" width="4.39" height="5.45"/>
      <rect class="cls-100" x="17.57" y="16.35" width="4.39" height="5.45"/>
      <rect class="cls-52" x="109.82" y="10.9" width="4.39" height="5.45"/>
      <rect class="cls-89" x="105.43" y="10.9" width="4.39" height="5.45"/>
      <rect class="cls-100" x="92.25" y="10.9" width="4.39" height="5.45"/>
      <rect class="cls-124" x="87.86" y="10.9" width="4.39" height="5.45"/>
      <rect class="cls-100" x="79.07" y="10.9" width="4.39" height="5.45"/>
      <rect class="cls-100" x="74.68" y="10.9" width="4.39" height="5.45"/>
      <rect class="cls-100" x="70.29" y="10.9" width="4.39" height="5.45"/>
      <rect class="cls-100" x="65.89" y="10.9" width="4.39" height="5.45"/>
      <rect class="cls-100" x="61.5" y="10.9" width="4.39" height="5.45"/>
      <rect class="cls-100" x="57.11" y="10.9" width="4.39" height="5.45"/>
      <rect class="cls-100" x="52.71" y="10.9" width="4.39" height="5.45"/>
      <rect class="cls-111" x="48.32" y="10.9" width="4.39" height="5.45"/>
      <rect class="cls-100" x="39.54" y="10.9" width="4.39" height="5.45"/>
      <rect class="cls-100" x="17.57" y="10.9" width="4.39" height="5.45"/>
      <rect class="cls-100" x="13.18" y="10.9" width="4.39" height="5.45"/>
      <rect class="cls-9" x="8.79" y="10.9" width="4.39" height="5.45"/>
      <rect class="cls-100" x="74.68" y="5.45" width="4.39" height="5.45"/>
      <rect class="cls-79" x="70.29" y="5.45" width="4.39" height="5.45"/>
      <rect class="cls-100" x="57.11" y="5.45" width="4.39" height="5.45"/>
      <rect class="cls-100" x="13.18" y="5.45" width="4.39" height="5.45"/>
      <rect class="cls-9" x="8.79" y="5.45" width="4.39" height="5.45"/>
      <rect class="cls-100" x="79.07" width="4.39" height="5.45"/>
      <rect class="cls-100" x="52.71" width="4.39" height="5.45"/>
      <rect class="cls-111" x="48.32" width="4.39" height="5.45"/>
    </g>
  </g>
</svg>