<?xml version="1.0" encoding="UTF-8"?>
<svg id="Vrstva_2" data-name="Vrstva 2" xmlns="http://www.w3.org/2000/svg" viewBox="0 0 320.02 383.83">
  <defs>
    <style>
      .cls-1 {
        fill: #fff;
      }

      .cls-2 {
        fill: #cccbcb;
      }

      .cls-3 {
        fill: #454444;
      }
    </style>
  </defs>
  <g id="Vrstva_1-2" data-name="Vrstva 1">
    <g>
      <path class="cls-3" d="M63.89,31.97c.02-1.06,.07-2.13,.07-3.19,0-8.32,0-16.63,0-24.95,0-.96,.02-1.92,.04-2.88,.01-.55,.44-.92,1.05-.94,.32-.01,.64-.01,.96-.01,.64,0,1.28,0,1.92,0,72.06,0,144.13,0,216.19,0,1.06,0,2.13,.05,3.19,.08,.23,0,.59,.39,.6,.64,.03,.96,.07,1.92,.07,2.88,0,8.21,0,16.42,0,24.63,0,.96,.02,1.92,.05,2.88,.01,.48,.32,.83,.76,.84,.96,.02,1.92,.04,2.88,.04,8.1,0,16.2,0,24.31,0,.85,0,1.71,0,2.56,0,1.2,.02,1.39,.23,1.42,1.54,.02,.75,0,1.49,0,2.24,0,29.53,0,59.06,0,88.59,0,4.14,.47,3.6-3.52,3.6-29.32,.01-58.63,0-87.95,0-.85,0-1.71,0-2.56,0-1.79,.02-1.91,.12-1.91,2.06,0,9.27,0,18.55,0,27.82,0,.42,.04,.85,.06,1.27,.03,.41,.37,.74,.84,.75,.96,.02,1.92,.03,2.88,.03,12.58,0,25.16,0,37.74,0,6.4,0,12.79,0,19.19,0,.85,0,1.7,.05,2.55,.07,.24,0,.61,.38,.62,.62,.03,.96,.08,1.92,.08,2.87,0,8.21,0,16.42,0,24.63,0,.96,.01,1.92,.04,2.88,.01,.57,.38,.87,1.05,.89,.85,.02,1.71,.02,2.56,.02,8.21,0,16.42,0,24.63,0,.96,0,1.92,.02,2.88,.04,.41,0,.74,.38,.78,.84,.02,.32,.05,.64,.05,.96,0,.75,0,1.49,0,2.24,0,39.98,0,79.95-.01,119.93,0,1.25,.3,2.55-.31,3.76-1.14,.41-2.33,.19-3.49,.2-8.1,.02-16.2,.01-24.31,.01-.96,0-1.92,.01-2.88,.04-.55,.01-.94,.44-.96,1.04-.02,.96-.03,1.92-.03,2.88,0,8.32,0,16.63,0,24.95,0,.85-.07,1.69-.15,2.54-.01,.15-.25,.38-.4,.4-.74,.08-1.48,.14-2.22,.14-8.42,0-16.84,0-25.27,.01-4.48,.01-3.92-.53-3.94,3.87-.03,8.1,0,16.2,0,24.31,0,.85,0,1.71-.01,2.56-.02,.89-.3,1.19-1.09,1.22-.32,.01-.64,.01-.96,.01-.75,0-1.49,0-2.24,0-71.85,0-143.7,0-215.55,0-1.07,0-2.13-.01-3.2-.04-.6-.01-.93-.39-.95-1.03-.02-.96-.02-1.92-.02-2.88,0-8.21,0-16.42,0-24.63,0-1.17-.05-2.34-.07-3.51,0,0-.06,.06-.06,.06,1.28,0,2.56,0,3.84,0,71.93,0,143.87,0,215.8,0,1.07,0,2.13,0,3.2-.02,.21,0,.44-.02,.62-.11,.18-.09,.41-.28,.42-.44,.08-.85,.12-1.7,.12-2.55,0-8.21,0-16.41,0-24.62,0-.85,0-1.71,0-2.56,.03-1.43,.25-1.66,1.67-1.68,.85-.02,1.71,0,2.56,0,8.21,0,16.41,0,24.62,0,.85,0,1.7-.04,2.55-.11,.17-.01,.36-.24,.45-.42,.09-.18,.1-.41,.11-.62,.02-1.07,.02-2.13,.02-3.2,0-39.64,0-79.29,0-118.93,0-1.07,0-2.13-.01-3.2-.02-1.05-.32-1.39-1.26-1.41-.96-.02-1.92-.02-2.88-.02-18.65,0-37.3,0-55.95,0-1.28,0-2.56-.05-3.83-.08,0-1.06-.03-2.13-.03-3.19,0-8.31,0-16.61,0-24.92,0-.96-.02-1.92-.04-2.87-.01-.46-.35-.84-.75-.85-1.06-.02-2.13-.04-3.19-.04-29.07,0-58.14,0-87.21,0-.85,0-1.7,0-2.56,0-.32,0-.64,0-.96-.01-.85-.03-1.2-.34-1.21-1.11-.02-.85-.02-1.7-.02-2.56,0-8.31,0-16.61,0-24.92,0-1.17-.09-2.34-.14-3.5,1.28,.02,2.55,.07,3.83,.07,16.93,0,33.86,0,50.79,0,12.67,0,25.34,0,38.02,0,.85,0,1.7-.01,2.55-.03,.45,0,.84-.35,.85-.73,.02-.43,.04-.85,.04-1.28,0-9.26,0-18.53,0-27.79,0-.74-.09-1.48-.14-2.23,1.28,.03,2.56,.07,3.83,.07,11.61,0,23.23,0,34.84,0,7.56,0,15.13,0,22.69,0,.74,0,1.49-.02,2.23-.09,.16-.02,.41-.27,.43-.42,.07-.74,.09-1.49,.09-2.23,0-19.39,0-38.78,0-58.17,0-.64,0-1.28-.01-1.92-.02-.74-.39-1.06-1.23-1.07-1.17-.01-2.34,0-3.52,0-72.56,0-145.11,0-217.67,0-.53,0-1.06-.07-1.58-.1l.06,.06Z"/>
      <path class="cls-3" d="M31.91,351.74c-.64,.03-1.27,.1-1.91,.1-9.17,0-18.33,0-27.5,0-.53,0-1.06-.02-1.6-.05-.45-.02-.84-.37-.86-.77-.02-.75-.04-1.49-.04-2.24,0-29.95,0-59.91,0-89.86,0-.75,.03-1.49,.06-2.24,.01-.4,.41-.76,.84-.79,.32-.02,.64-.04,.96-.05,.85,0,1.71,0,2.56,0,30.49,0,60.97,0,91.46,0l-.06-.06c.35,.58,.26,1.23,.26,1.86,0,9.43,0,18.86,0,28.28,0,.63-.12,1.26-.18,1.88-1.17,.02-2.34,.05-3.52,.05-18.55,0-37.09,0-55.64,0-.64,0-1.28,0-1.92,0-2.7,0-2.76-.1-2.73,2.89,0,.64,0,1.28,0,1.92,0,18.33,0,36.67,0,55,0,.96,.02,1.92-.02,2.88-.01,.42-.14,.83-.21,1.25l.06-.06Z"/>
      <path class="cls-3" d="M31.9,191.83c-.64,.03-1.27,.1-1.91,.1-9.06,0-18.12,0-27.18,0-.64,0-1.28-.02-1.91-.05-.45-.02-.84-.37-.85-.77-.02-.75-.04-1.49-.04-2.24C0,148.26,0,107.65,0,67.04c0-.75,.03-1.49,.06-2.24,.01-.4,.41-.78,.83-.79,.96-.03,1.92-.05,2.87-.05,7.99,0,15.99,0,23.98,0,1.39,0,2.77,0,4.16,0,0,0-.06-.06-.06-.06,.51,1.12,.25,2.31,.25,3.47,.02,40.35,.01,80.7,.01,121.05,0,.85,0,1.7-.03,2.55-.01,.31-.15,.61-.23,.92l.05-.05Z"/>
      <path class="cls-3" d="M95.87,255.86c.03-.74,.08-1.48,.08-2.22,0-9.1,0-18.19,0-27.29,0-.85-.05-1.69-.07-2.54,0,0-.06,.06-.06,.06,2.66,0,5.32,0,7.98,0,38.43,0,76.86,0,115.28,0,1.06,0,2.13,0,3.19,0,.32,0,.65-.01,.95,.08,.28,.09,.59,.26,.63,.63,.05,.53,.12,1.06,.12,1.59,0,9.26,0,18.52,0,27.78,0,.63-.12,1.26-.18,1.9-.74,.01-1.49,.04-2.23,.04-41.5,0-82.99,0-124.49,0-.42,0-.84-.07-1.26-.11,0,0,.06,.06,.06,.06Z"/>
      <path class="cls-3" d="M95.87,223.81c-.96,.03-1.91,.1-2.87,.1-19.17,0-38.35,0-57.52,0-.85,0-1.7-.01-2.55-.04-.58-.02-.91-.4-.93-1.05-.02-.96-.02-1.92-.02-2.88,0-8.2,0-16.4,0-24.61,0-1.17-.05-2.34-.08-3.51,0,0-.05,.05-.05,.05,11.72,0,23.45,0,35.17,0,9.59,0,19.19,.01,28.78,.02,.08,.73,.23,1.46,.23,2.19,.02,9.3,.01,18.59,0,27.89,0,.62-.14,1.25-.22,1.87l.06-.06Z"/>
      <path class="cls-3" d="M31.9,63.96c.03-1.06,.08-2.12,.08-3.18,0-8.4,0-16.79,0-25.19,0-.96,0-1.91,.09-2.86,.02-.23,.36-.6,.58-.63,.95-.1,1.91-.11,2.86-.12,9.46,0,18.92-.01,28.37-.01,0,0-.06-.06-.06-.06,.28,.48,.26,1.01,.26,1.54,0,9.55,0,19.1,0,28.65,0,.42,.02,.87-.1,1.26-.08,.24-.4,.52-.64,.56-.62,.09-1.27,.07-1.9,.07-9.55,0-19.1,.01-28.65,.01-.31,0-.63-.08-.94-.12l.06,.06Z"/>
      <path class="cls-1" d="M31.84,63.9c.31,.04,.63,.12,.94,.12,9.55,0,19.1,0,28.65-.01,.64,0,1.28,.02,1.9-.07,.25-.04,.57-.32,.64-.56,.13-.39,.1-.84,.1-1.26,0-9.55,0-19.1,0-28.65,0-.53,.02-1.06-.26-1.54,.53,.04,1.06,.1,1.58,.1,72.56,0,145.11,0,217.67,0,1.17,0,2.34,0,3.52,0,.85,0,1.22,.33,1.23,1.07,.02,.64,.01,1.28,.01,1.92,0,19.39,0,38.78,0,58.17,0,.74-.02,1.49-.09,2.23-.01,.16-.27,.41-.43,.42-.74,.07-1.48,.09-2.23,.09-7.56,0-15.13,0-22.69,0-11.61,0-23.23,0-34.84,0-1.28,0-2.56-.05-3.83-.07l.08,.08c.34-1.04,.18-2.12,.19-3.17,.01-8.42,.02-16.84,0-25.25-.01-4,.49-3.55-3.58-3.56-29.62,0-59.25,0-88.87,0-.85,0-1.7,0-2.56,.02-.61,.01-1.01,.39-1.02,.97-.02,.96-.04,1.92-.04,2.88,0,8.31,0,16.62,0,24.93,0,1.06-.09,2.12-.13,3.18l.07-.07c-1.06,.02-2.13,.07-3.19,.07-8.63,0-17.27,0-25.9,0-.64,0-1.28,.02-1.92,.05-.43,.02-.82,.38-.84,.78-.03,.53-.06,1.06-.06,1.6,0,9.06,0,18.12,0,27.18,0,.53,.02,1.07,.04,1.6,.02,.4,.41,.74,.86,.77,.32,.02,.64,.05,.96,.05,10.02,0,20.04-.02,30.06-.03,0,0-.08-.08-.08-.08,.05,1.17,.14,2.34,.14,3.5,.01,8.31,0,16.61,0,24.92,0,.85,0,1.7,.02,2.56,.02,.77,.36,1.08,1.21,1.11,.32,.01,.64,.01,.96,.01,.85,0,1.7,0,2.56,0,29.07,0,58.14,0,87.21,0,1.06,0,2.13,.02,3.19,.04,.41,0,.74,.39,.75,.85,.02,.96,.04,1.92,.04,2.87,0,8.31,0,16.61,0,24.92,0,1.06,.02,2.13,.03,3.19-1.38,.02-2.77,.06-4.15,.06-39.93,0-79.87,0-119.8,0-1.38,0-2.77,.01-4.15,.02-9.59,0-19.19-.02-28.78-.02-11.72,0-23.45,0-35.17,0,.08-.31,.21-.61,.23-.92,.04-.85,.03-1.7,.03-2.55,0-40.35,0-80.7-.01-121.05,0-1.15,.26-2.34-.25-3.47Z"/>
      <path class="cls-2" d="M95.81,191.92c1.38,0,2.77-.02,4.15-.02,39.93,0,79.87,0,119.8,0,1.38,0,2.77-.04,4.15-.06,1.28,.03,2.56,.08,3.83,.08,18.65,0,37.3,0,55.95,0,.96,0,1.92,0,2.88,.02,.94,.02,1.24,.35,1.26,1.41,.02,1.07,.01,2.13,.01,3.2,0,39.64,0,79.29,0,118.93,0,1.07,0,2.13-.02,3.2,0,.21-.01,.45-.11,.62-.09,.18-.29,.4-.45,.42-.85,.07-1.7,.11-2.55,.11-8.21,0-16.41,0-24.62,0-.85,0-1.71,0-2.56,0-1.41,.02-1.64,.26-1.67,1.68-.02,.85,0,1.71,0,2.56,0,8.21,0,16.41,0,24.62,0,.85-.05,1.7-.12,2.55-.01,.16-.25,.35-.42,.44-.18,.09-.41,.1-.62,.11-1.07,.02-2.13,.02-3.2,.02-71.93,0-143.87,0-215.8,0-1.28,0-2.56,0-3.84,0,.07-.42,.2-.83,.21-1.25,.03-.96,.02-1.92,.02-2.88,0-18.33,0-36.67,0-55,0-.64,0-1.28,0-1.92-.03-2.99,.03-2.89,2.73-2.89,.64,0,1.28,0,1.92,0,18.55,0,37.09,0,55.64,0,1.17,0,2.34-.03,3.52-.05,0,0-.05-.06-.05-.06,.04,1.17,.11,2.34,.11,3.51,0,8.09,0,16.18,0,24.27,0,.85,0,1.7,0,2.55,.03,1.56,.21,1.74,1.91,1.76,.74,.01,1.49,0,2.24,0,39.91,0,79.83,0,119.74,0,.75,0,1.49,0,2.24,0,.32,0,.64-.03,.96-.05,.42-.03,.84-.39,.86-.76,.03-.53,.08-1.06,.08-1.59,0-9.15,0-18.31,0-27.46,0-.74-.12-1.48-.18-2.22l-.05,.05c10.22,.01,20.44,.03,30.66,.04,.32,0,.65-.02,.95-.11,.18-.05,.43-.25,.46-.41,.1-.63,.15-1.27,.16-1.9,0-9.05,0-18.1,0-27.15,0-.53-.05-1.06-.09-1.59-.03-.4-.43-.78-.84-.79-1.06-.03-2.13-.05-3.19-.06-9.37-.02-18.74-.03-28.1-.04l.06,.04c.06-.63,.18-1.26,.18-1.9,.01-9.26,0-18.52,0-27.78,0-.53-.07-1.06-.12-1.59-.03-.37-.34-.54-.63-.63-.3-.09-.63-.08-.95-.08-1.06-.01-2.13,0-3.19,0-38.43,0-76.86,0-115.28,0-2.66,0-5.32,0-7.98,0,.08-.62,.21-1.25,.22-1.87,.01-9.3,.02-18.59,0-27.89,0-.73-.15-1.46-.23-2.19Z"/>
      <path class="cls-3" d="M223.81,95.95c-1.17,.01-2.34,.03-3.51,.03-29.46,0-58.91,0-88.37,0-1.38,0-2.76-.03-4.14-.04,.05-1.06,.13-2.12,.13-3.18,.01-8.31,0-16.62,0-24.93,0-.96,.01-1.92,.04-2.88,.01-.58,.41-.95,1.02-.97,.85-.02,1.7-.02,2.56-.02,29.62,0,59.25,0,88.87,0,4.08,0,3.57-.45,3.58,3.56,.02,8.42,.01,16.84,0,25.25,0,1.06,.15,2.13-.19,3.17Z"/>
      <path class="cls-3" d="M127.86,95.88c.07,.52,.19,1.04,.19,1.56,.01,9.54,.01,19.08,0,28.61,0,.63-.12,1.26-.18,1.88-10.02,.01-20.04,.02-30.06,.03-.32,0-.64-.03-.96-.05-.45-.03-.84-.37-.86-.77-.02-.53-.04-1.06-.04-1.6,0-9.06,0-18.12,0-27.18,0-.53,.03-1.06,.06-1.6,.02-.4,.41-.76,.84-.78,.64-.02,1.28-.05,1.92-.05,8.63,0,17.27,0,25.9,0,1.06,0,2.13-.05,3.19-.07Z"/>
      <path class="cls-3" d="M95.84,287.76c1.28,.03,2.55,.08,3.83,.08,40.2,0,80.41,0,120.61,0,1.17,0,2.34-.05,3.51-.07,.06,.74,.18,1.48,.18,2.22,.01,9.15,0,18.31,0,27.46,0,.53-.05,1.06-.08,1.59-.02,.37-.44,.73-.86,.76-.32,.02-.64,.05-.96,.05-.74,0-1.49,0-2.24,0-39.91,0-79.83,0-119.74,0-.75,0-1.49,0-2.24,0-1.69-.03-1.88-.2-1.91-1.76-.01-.85,0-1.7,0-2.55,0-8.09,0-16.18,0-24.27,0-1.17-.07-2.34-.11-3.51Z"/>
      <path class="cls-3" d="M223.74,287.82c.05-.74,.13-1.47,.13-2.21,0-9.09,.01-18.18,0-27.27,0-.84-.09-1.68-.14-2.53,9.37,.01,18.74,.02,28.1,.04,1.06,0,2.13,.03,3.19,.06,.42,.01,.81,.39,.84,.79,.04,.53,.09,1.06,.09,1.59,0,9.05,0,18.1,0,27.15,0,.63-.06,1.27-.16,1.9-.02,.16-.27,.35-.46,.41-.3,.09-.63,.11-.95,.11-10.22,0-20.44-.02-30.66-.04Z"/>
    </g>
  </g>
</svg>